<svg id="Layer_1" data-name="Layer 1" xmlns="http://www.w3.org/2000/svg" viewBox="0 0 1953 303"><path d="M105.55,190l-9.28-18.29c-3-6.08-6.16-12.11-9.3-18.06-1.59-3-3.19-5.92-4.82-8.82s-3.34-5.75-5.07-8.51a85,85,0,0,0-5.44-7.7,23.65,23.65,0,0,0-2.79-3,5.6,5.6,0,0,0-1.14-.82c-.28-.16-.45-.15-.11,0l-3.85-10.6.71-1,.64-.84c.42-.55.85-1.08,1.28-1.61.86-1.05,1.73-2.06,2.62-3.06,1.79-2,3.63-3.9,5.58-5.7A103.87,103.87,0,0,1,87,92a108.82,108.82,0,0,1,13.75-8,105.18,105.18,0,0,1,14.85-5.83c2.54-.82,5.13-1.41,7.71-2s5.21-1.09,7.85-1.44,5.27-.61,7.91-.86c1.32-.11,2.64-.12,4-.18s2.64-.13,4-.09l4,.07c1.32,0,2.63.17,3.94.25s2.62.15,3.92.32l3.9.49,2,.25,1.92.35,3.85.72c2.55.53,5.06,1.18,7.59,1.77l.31.07a6.45,6.45,0,0,1,5,6.2c.07,6.49.36,13.21.67,19.82l.57,10c.24,3.31.48,6.62.77,9.93.62,6.6,1.33,13.2,2.51,19.7A85.21,85.21,0,0,0,190,153.1a28.9,28.9,0,0,0,4.17,9,19.64,19.64,0,0,1-3.7-3.59l-.82-1-.74-1.07-.75-1.08-.67-1.11a72.74,72.74,0,0,1-4.58-9.34,152.6,152.6,0,0,1-6.27-19.65c-.85-3.32-1.6-6.66-2.29-10s-1.34-6.71-1.9-10.08c-1.17-6.75-2.06-13.44-2.79-20.37L175,91A130.9,130.9,0,0,0,147.2,89c-1.15,0-2.29.1-3.44.18s-2.29.14-3.43.27c-2.27.28-4.54.53-6.79.94s-4.48.84-6.72,1.3-4.42,1.1-6.58,1.82a91,91,0,0,0-12.76,4.85A105.47,105.47,0,0,0,84.32,113c-1.75,1.48-3.46,3-5.11,4.56-.82.79-1.62,1.59-2.39,2.39-.38.41-.76.81-1.12,1.21l-1,1.09L70.9,111.6a12.93,12.93,0,0,1,4.44,2.21,19.46,19.46,0,0,1,2.75,2.47,38.18,38.18,0,0,1,3.77,4.84,79.18,79.18,0,0,1,5.33,9.6c1.54,3.2,2.92,6.42,4.2,9.66s2.49,6.48,3.6,9.75c2.27,6.52,4.21,13.12,6,19.74S104.32,183.19,105.55,190Z"/><path d="M108.93,196.71c-3.66,3.43-7.23,6.53-10.23,9.85a36.63,36.63,0,0,0-3.93,4.92c-.24.4-.45.81-.69,1.18s-.38.75-.48,1.08c-.26.66-.2,1.2-.08,1.16a.4.4,0,0,0,.14-.25,1.18,1.18,0,0,0,.06-.52,1.28,1.28,0,0,1,0-.52c0-.18.31,0,.81.22a26.17,26.17,0,0,0,4.61,1.45,57.64,57.64,0,0,0,5.83,1,44.5,44.5,0,0,0,5.66.23c7.59-.17,15.51-2.54,23.54-6s16.09-8,25-12.54a45.67,45.67,0,0,1-3.45,6.62,62.57,62.57,0,0,1-4.29,6.1,63.78,63.78,0,0,1-10.73,10.61,56.05,56.05,0,0,1-13.57,7.82,51.34,51.34,0,0,1-7.79,2.38,47.31,47.31,0,0,1-8.28,1,44.2,44.2,0,0,1-8.43-.62,48.29,48.29,0,0,1-7.94-2.12,29.63,29.63,0,0,1-8.2-4.37,15.8,15.8,0,0,1-4.14-4.75A11.58,11.58,0,0,1,81,216.87a11.09,11.09,0,0,1-.13-2.27,16.79,16.79,0,0,1,.3-2,12.67,12.67,0,0,1,1.24-3A14.86,14.86,0,0,1,84,207.34c.53-.66,1.08-1.18,1.63-1.76s1.12-1,1.68-1.42a32.49,32.49,0,0,1,7-4,41.38,41.38,0,0,1,7.24-2.37A38.88,38.88,0,0,1,108.93,196.71Z"/><path d="M173.52,181.94a34.66,34.66,0,0,1,3.6-4.65,52.34,52.34,0,0,1,4.1-4.06,57.07,57.07,0,0,1,9.36-6.74,46,46,0,0,1,11.14-4.66,34.69,34.69,0,0,1,6.62-1.07,23.45,23.45,0,0,1,7.79.86,15.16,15.16,0,0,1,2.12.77,13.86,13.86,0,0,1,2.1,1.07,17.47,17.47,0,0,1,3.83,3.11,14.71,14.71,0,0,1,3,4.92c.1.29.19.58.28.88a5.53,5.53,0,0,1,.22.93,16.23,16.23,0,0,1,.19,2.09,10.86,10.86,0,0,1-.21,2.11c-.07.35-.14.71-.23,1s-.22.61-.34.91a10.51,10.51,0,0,1-.82,1.68c-.29.46-.6.91-.92,1.34a4.32,4.32,0,0,1-.48.57l-.47.49c-.32.3-.67.67-1,.89a17.72,17.72,0,0,1-3.54,2.26,27.9,27.9,0,0,1-6.31,2.15,39.88,39.88,0,0,1-5.93.83,48.89,48.89,0,0,1-5.8.1,53,53,0,0,1-5.75-.57,34.88,34.88,0,0,1-5.73-1.33c3.31-2.23,6.58-4,9.76-5.77s6.26-3.39,9-5a26,26,0,0,0,3.44-2.45,3.69,3.69,0,0,0,.81-.93c.06-.06,0-.06,0-.08h0s0,0-.07,0a.64.64,0,0,0-.19.21,2.11,2.11,0,0,0-.27.45,2.31,2.31,0,0,0-.1.28,3.82,3.82,0,0,0-.13.36,4.15,4.15,0,0,0-.09.78,2.31,2.31,0,0,0,0,.74,1.45,1.45,0,0,1,0,.29,1,1,0,0,0,0,.24c.24.65.22.58.06.47a5,5,0,0,0-1.13-.48,12.13,12.13,0,0,0-2.88-.41,34.89,34.89,0,0,0-4.09.17c-3,.3-6.19.85-9.53,1.5C188.35,179.45,181.37,181.11,173.52,181.94Z"/><path d="M1042,204.19a64.3,64.3,0,0,1-14.44,21.87,59.91,59.91,0,0,1-21,13.35,70.19,70.19,0,0,1-24.83,4.48q-18.16,0-31.94-6.78a63.3,63.3,0,0,1-23.08-19.25q-9.3-12.47-14.11-30.08a147.93,147.93,0,0,1-4.82-39.05,90.44,90.44,0,0,1,6.79-35.55,86.9,86.9,0,0,1,17.94-27.46,80.65,80.65,0,0,1,25.37-17.61,72.28,72.28,0,0,1,29.32-6.24,35.68,35.68,0,0,1,7.87,1.32q5.25,1.31,11.49,3.5t12.91,5.25a93.94,93.94,0,0,1,12,6.56,48.83,48.83,0,0,1,8.86,7.22q3.49,3.72,3.5,7.44a8.33,8.33,0,0,1-2.84,6.34,51.11,51.11,0,0,1-5,4.16,29.06,29.06,0,0,0-7.88,7.22,56.27,56.27,0,0,0-5,8.42q-2.19,4.49-4.38,9.08a45.76,45.76,0,0,1-5.47,8.75l-1.75.22c-.73,0-1.6-.73-2.62-2.19s-1.39-2.62-1.1-3.5.66-3.28,1.53-7.22,1.75-8.09,2.63-12.47,1.67-8.34,2.41-11.92,1.09-5.58,1.09-6a18.32,18.32,0,0,0-3.17-10.83,26.11,26.11,0,0,0-7.88-7.32,35.9,35.9,0,0,0-10.06-4.16,40.36,40.36,0,0,0-9.52-1.31,47.45,47.45,0,0,0-22.31,5.25A52.55,52.55,0,0,0,945.22,90.2,70.61,70.61,0,0,0,934,112.08a88.45,88.45,0,0,0-4.05,27.24A106.74,106.74,0,0,0,934,170.06a63.22,63.22,0,0,0,11.7,22.64,49,49,0,0,0,18.71,13.89,62.71,62.71,0,0,0,24.83,4.71,49.21,49.21,0,0,0,32.7-12.91,50.75,50.75,0,0,0,11.27-15.32,46.24,46.24,0,0,0,4.38-20.56,39.71,39.71,0,0,0-2.85-15.1,6.57,6.57,0,0,0,1.21-.87,2.18,2.18,0,0,1,1.2-.66q2.63,0,4.48,3.5a42,42,0,0,1,3.18,8.1,67.44,67.44,0,0,1,2,9.3,55.64,55.64,0,0,1,.66,7.11Q1047.39,191.17,1042,204.19Z"/><path d="M1159.29,220.34q-9.3,1.17-18.92,1.69t-18.16.53h-12.69c-2.48,0-5.8,0-10-.11s-8.47-.25-12.91-.54-8.75-.69-12.91-1.21a40.39,40.39,0,0,1-9.52-2.07,176,176,0,0,0,4.71-39.6q.11-20.13.11-40,0-13.12-.55-26.91a106.41,106.41,0,0,0-4.27-26.25,4.74,4.74,0,0,1,2.41-1.42,20.59,20.59,0,0,1,3.72-.77c1.31-.14,2.59-.25,3.83-.33s2.22-.11,3-.11q3.06,0,8.1.33a35.57,35.57,0,0,1,7.87,1.21l1.31,3.06a84.13,84.13,0,0,0-2.73,19.62q-.33,10.85-.33,20v25.86q0,8.55.11,18t.44,17.75q.33,8.32.87,14.79a40.38,40.38,0,0,0,1.42,8.87,8.82,8.82,0,0,0,5.26,2.74,51.07,51.07,0,0,0,5.9.33,48,48,0,0,0,12.14-2.19,119.14,119.14,0,0,0,15.76-5.69,84.76,84.76,0,0,0,14.43-8q6.45-4.48,8-9.08-2-11.37-4.38-23.52a121.14,121.14,0,0,1-2.4-23.52,8.45,8.45,0,0,1,.44-2.51c.29-.95.5-1.79.65-2.52l3.28-3.5,2.19,1.32a18.8,18.8,0,0,0-.44,5,35.65,35.65,0,0,0,.22,4.81q1.53,11.81,3.17,20.56t3.94,16.63q2.3,7.88,5.25,15.64t6.89,17.58A63.51,63.51,0,0,1,1159.29,220.34Z"/><path d="M1309,181.54A72.17,72.17,0,0,1,1296.68,204a60.34,60.34,0,0,1-19.25,15.53,53.43,53.43,0,0,1-24.83,5.8q-15.54,0-27.35-6.57a59.49,59.49,0,0,1-19.69-17.5,80.17,80.17,0,0,1-11.92-25,105.33,105.33,0,0,1-4.05-29.2,61.88,61.88,0,0,1,5.58-26.15A69.14,69.14,0,0,1,1210,99.72a70.22,70.22,0,0,1,21.33-14.11,62.46,62.46,0,0,1,24.73-5.14,43,43,0,0,1,24.06,7,63.32,63.32,0,0,1,18,17.94,92.13,92.13,0,0,1,15.2,49.66A80.75,80.75,0,0,1,1309,181.54Zm-13.24-25.6a102.16,102.16,0,0,0-5.9-17.17,109.82,109.82,0,0,0-9.19-16.62,82.73,82.73,0,0,0-11.71-14,57.86,57.86,0,0,0-13.67-9.74,34,34,0,0,0-29.32-.77,32.43,32.43,0,0,0-11,8.21,39.24,39.24,0,0,0-7.22,12.25,42.66,42.66,0,0,0-2.63,15.09,77,77,0,0,0,4.81,25.93,92,92,0,0,0,13.24,24.61,76.59,76.59,0,0,0,19.58,18.38,43.16,43.16,0,0,0,23.85,7.22,25.55,25.55,0,0,0,12.8-3.29,32.5,32.5,0,0,0,9.84-8.53,42.66,42.66,0,0,0,8.64-25.59A67.53,67.53,0,0,0,1295.8,155.94Z"/><path d="M1453.1,100.49c-.8,3.86-1.83,8.35-3.06,13.45s-2.59,10.43-4,16-2.88,10.65-4.27,15.32-2.59,8.57-3.61,11.7-1.75,4.71-2.18,4.71q.87-10.72,2.29-22.1a177.78,177.78,0,0,0,1.43-22.1,16.8,16.8,0,0,0-2.85-9.51,25.21,25.21,0,0,0-7.11-7.11,34.8,34.8,0,0,0-9.3-4.38,32.4,32.4,0,0,0-9.4-1.53,7.91,7.91,0,0,0-4.82,1.31,9.12,9.12,0,0,0-2.73,3.28,12.19,12.19,0,0,0-1.2,4.49c-.15,1.68-.22,3.39-.22,5.14q0,8.75.43,20.13t1,23.3q.54,11.92,1.2,23.51t1.21,20.57q.54,9,1.42,20.13a3.17,3.17,0,0,1-2.08,2.95,15.76,15.76,0,0,1-4.81,1.31,44.81,44.81,0,0,1-5.36.33h-7.66a17.76,17.76,0,0,1-4.38-.55,8,8,0,0,1-3.61-1.86,4.51,4.51,0,0,1-1.2-3.93q1.75-26.47,3.17-53t1.43-52.94c0-1.75-.08-3.5-.22-5.25a12.49,12.49,0,0,0-1.21-4.59A8.71,8.71,0,0,0,1378.5,96a8.4,8.4,0,0,0-4.92-1.31,32.41,32.41,0,0,0-9.41,1.53,33.2,33.2,0,0,0-9.3,4.49,27.47,27.47,0,0,0-7.11,7.11,16.59,16.59,0,0,0-2.84,9.62,176.1,176.1,0,0,0,1.42,21.88q1.42,11.38,2.51,22.1-.64-.22-2.18-4.71t-3.61-11.48q-2.08-7-4.27-15.32t-4-16q-1.86-7.65-3.06-13.45a48.15,48.15,0,0,1-1.2-7.77,4.65,4.65,0,0,1,2.19-3.94,17.18,17.18,0,0,1,5.25-2.4,48.87,48.87,0,0,1,6-1.32,34,34,0,0,1,4.71-.43c3.93-.15,9.48-.22,16.62-.22h22.54q11.81,0,23.08.11t17.94.22l7.11.11a73.52,73.52,0,0,1,9.18,1.53,27.17,27.17,0,0,1,6.35,2.4q2.83,1.55,2.84,3.94A48.15,48.15,0,0,1,1453.1,100.49Z"/><path d="M1580.86,218.84a4.12,4.12,0,0,1-.65,1,7.49,7.49,0,0,1-.77.65,1.45,1.45,0,0,0-.44,1.21h-20.56c-1,0-2-.77-3.06-2.3a7.28,7.28,0,0,1-1.54-3.61,139.88,139.88,0,0,1,1.64-21.33,138.54,138.54,0,0,0,1.65-21.33V122.37a32.27,32.27,0,0,0-11.38-2.63c-3.8-.14-7.66-.22-11.6-.22h-8.09c-3.21,0-6.45.08-9.74.22s-6.45.4-9.51.77a49.71,49.71,0,0,0-7.66,1.42,11.92,11.92,0,0,1-1.42.54,1.24,1.24,0,0,0-1,1.21l.88,9.84V167q0,8.32.11,16.41t.65,16.52q.55,8.43,1.65,18.49a6.07,6.07,0,0,1-2.52,1.75,13.83,13.83,0,0,1-3.61.87,32.72,32.72,0,0,1-3.72.22h-3.06q-3.28,0-6-.11a11.5,11.5,0,0,1-4.7-1.09,6.8,6.8,0,0,1-3.06-3.18,15,15,0,0,1-1.1-6.56q0-15.09,1-30.52t1.64-31.06q.64-15.64.54-31a218.83,218.83,0,0,0-2.29-30.19l4.15-3.06h17.07a3,3,0,0,1,3.06,2.5,20.52,20.52,0,0,1,.55,5.86q-.12,3.36-.55,6.73a43.26,43.26,0,0,0-.44,4.88,13.26,13.26,0,0,0,1,5.32c.65,1.52,2.08,2.28,4.26,2.28l50.1.65a4,4,0,0,0,3-1.19,8.82,8.82,0,0,0,1.87-2.72l-2.19-22.36q2.4-2.18,6.89-2.28c3-.07,5.5-.11,7.55-.11q7.65,0,10.06,4.27t2.19,11.15a125,125,0,0,1-1.64,15.64,108.93,108.93,0,0,0-1.43,17.51v31.72a262.16,262.16,0,0,0,1.32,26.25q1.3,13.13,1.31,26.25A4.52,4.52,0,0,1,1580.86,218.84Z"/><path d="M1620.68,218.84a3.84,3.84,0,0,1-.66,1,6.41,6.41,0,0,1-.77.65,1.44,1.44,0,0,0-.43,1.21h-20.39c-1,0-2-.77-3-2.3a7.48,7.48,0,0,1-1.51-3.83,137.24,137.24,0,0,1,1.64-21.11,123.81,123.81,0,0,0,1.42-21.33q0-22.32-.11-43.54T1595,86.27q2.38-2,6.83-2.08c3-.07,5.46-.11,7.48-.11,1.16,0,2.39,0,3.69.11a8.66,8.66,0,0,1,3.47.87,6.64,6.64,0,0,1,2.49,2.19,7.13,7.13,0,0,1,1,4q-.44,10.5-1,20.67t-.55,20.68v31.72q0,13.13,1.31,26.25a262.2,262.2,0,0,1,1.31,26.26A4.67,4.67,0,0,1,1620.68,218.84Z"/><path d="M1748.22,148.51q-.56,7.22-1.32,16.3t-1.86,19q-1.1,10-2.62,18.16a82.22,82.22,0,0,1-3.5,13.45c-1.31,3.5-2.85,5.25-4.6,5.25-.87,0-2.33-1.27-4.37-3.83s-4.16-5.5-6.35-8.86-4.23-6.56-6.12-9.62-3.14-5.18-3.72-6.35a74.65,74.65,0,0,0-6.13-9.62q-4.82-6.78-11.48-15.1T1681.82,150q-7.66-9-14.55-16.41t-12.36-12.36q-5.48-4.92-7.88-5.36a29.35,29.35,0,0,0-1.31,7c-.14,2.34-.22,4.74-.22,7.22q0,17.07,1.32,34.46a242.61,242.61,0,0,0,5,34.23,35.06,35.06,0,0,0,1.09,4.16q.87,2.85,1.86,5.91t1.75,5.58a18.64,18.64,0,0,1,.77,2.95,3,3,0,0,1-1.32,2.52,12.34,12.34,0,0,1-3.06,1.64,20.82,20.82,0,0,1-3.5,1,16,16,0,0,1-2.84.33q-3.74,0-5.25-4.27a37.43,37.43,0,0,1-2-9.84,89.38,89.38,0,0,1-.22-10.94c.14-3.57.22-6.09.22-7.55q0-23.19-1.1-45.94t-1.09-45.94c0-1,0-2.3.11-3.83a22.42,22.42,0,0,1,.66-4.49,11.81,11.81,0,0,1,1.64-3.82,3.65,3.65,0,0,1,3.28-1.64q5.91,0,13.89,5.68a127.48,127.48,0,0,1,16.84,14.77q8.87,9.08,18.05,20.24t17.72,22.09l15.76,20.24q7.21,9.3,12,14.77c0-3.36.11-6.71.33-10.07s.33-6.7.33-10.06q0-4.59-.88-13.56t-2.41-18.49q-1.53-9.51-3.28-17.94c-1.17-5.61-2.4-9.66-3.72-12.14a25.11,25.11,0,0,0-4.15-6,9.65,9.65,0,0,1-2.85-6.45A3.15,3.15,0,0,1,1722,85a9.82,9.82,0,0,1,3.39-1.42,24.38,24.38,0,0,1,3.94-.54c1.32-.08,2.33-.11,3.07-.11h5.9a7,7,0,0,1,5.91,3,21.79,21.79,0,0,1,3.39,7.55,53.25,53.25,0,0,1,1.53,10.39q.33,5.79.33,11.48t-.22,10.83q-.23,5.14-.22,8.21c0,.29,0,.91-.11,1.86a4.39,4.39,0,0,0,.33,2.29C1748.91,140.34,1748.58,143.69,1748.22,148.51Z"/><path d="M1890.53,204.3a29.32,29.32,0,0,1-8.1,7.65,54,54,0,0,1-11.48,5.58,127.85,127.85,0,0,1-12.8,3.83,99.33,99.33,0,0,1-12.25,2.19,93.84,93.84,0,0,1-9.85.65,63.49,63.49,0,0,1-49.55-22.42,74.42,74.42,0,0,1-13.67-24.29,89.82,89.82,0,0,1-4.81-29.64,58.1,58.1,0,0,1,6.34-27.13,68.27,68.27,0,0,1,16.52-20.89,77.14,77.14,0,0,1,23-13.45,73.08,73.08,0,0,1,25.92-4.82,96.51,96.51,0,0,1,12.69,1.27,130.72,130.72,0,0,1,17.28,3.83,60.26,60.26,0,0,1,15.32,6.72q6.56,4.16,6.56,9.84l-12.47,14.22q-1.76,0-4.81-4.59a119.06,119.06,0,0,0-7.66-10.07,53.75,53.75,0,0,0-11.27-10,27.37,27.37,0,0,0-15.64-4.48,39.8,39.8,0,0,0-20,5.15A53.07,53.07,0,0,0,1804.11,107a65.54,65.54,0,0,0-10.28,18.84,64,64,0,0,0-3.72,21.48,38.91,38.91,0,0,0,2.74,13.81,76.41,76.41,0,0,0,7.22,14.25,84.91,84.91,0,0,0,10.5,13.26,88.48,88.48,0,0,0,12.68,10.95,69.22,69.22,0,0,0,13.57,7.56,34.36,34.36,0,0,0,13.23,2.85q5.91,0,10.62-.33a20.21,20.21,0,0,0,8.2-2.18,12.19,12.19,0,0,0,5.36-5.91q1.86-4,1.86-11.49a95.74,95.74,0,0,0-1.86-20.67,43.73,43.73,0,0,0-5.14-13.45,24.77,24.77,0,0,0-7.88-8.1,44.89,44.89,0,0,0-10.17-4.59q-5.58-1.75-11.71-3.06a119.82,119.82,0,0,1-12.68-3.51,3.64,3.64,0,0,1,2.29-2.07,17.45,17.45,0,0,1,4-1.1c1.46-.22,2.92-.36,4.38-.44s2.62-.11,3.5-.11q14.43,0,24.06-.21a124.77,124.77,0,0,1,15.64.43c4,.44,7,1.46,8.86,3.07s3.18,4.15,3.83,7.65a65.42,65.42,0,0,1,.66,14q-.33,8.76-.55,22.1l-.22,8.31.22,6.13A15.68,15.68,0,0,1,1890.53,204.3Z"/><path d="M344.69,227.71a3.34,3.34,0,0,1-.68,1.17l-.78.77a2.66,2.66,0,0,0-.58,1.36H322.52a2.21,2.21,0,0,1-1.55-.78,9,9,0,0,1-1.45-1.94,11.74,11.74,0,0,1-1.07-2.32,6.31,6.31,0,0,1-.39-1.93,187.81,187.81,0,0,1,1.55-24,187.56,187.56,0,0,0,1.55-24.2q0-25.37-.19-49.37t-1.74-49c1.55-1.55,3.8-2.39,6.77-2.51s5.42-.2,7.36-.2c1.16,0,2.39.07,3.68.2a9.83,9.83,0,0,1,3.48,1A6.1,6.1,0,0,1,343,78.34a8,8,0,0,1,.78,4.55q-.39,11.82-1,23.62t-.58,23.43v36q0,15.11,1.35,29.82T345,225.39A7,7,0,0,1,344.69,227.71Z"/><path d="M458.62,200.8a65.58,65.58,0,0,1-14.52,17,72.42,72.42,0,0,1-18.78,11.42,49.29,49.29,0,0,1-18.78,4.17,46.83,46.83,0,0,1-18.29-4.07,64.87,64.87,0,0,1-17.62-11.13,59.9,59.9,0,0,1-13.26-16.75,43.25,43.25,0,0,1-5.23-20.91,47.71,47.71,0,0,1,1.74-13.46,55.92,55.92,0,0,1,4.55-11A65.4,65.4,0,0,1,365,146.3q3.78-4.65,7.84-9.68a48,48,0,0,1-6.09-5.52,45.42,45.42,0,0,1-5.43-7.06,38.91,38.91,0,0,1-3.87-8.23,28.27,28.27,0,0,1-1.45-9q0-10.65,5.52-17.43a38,38,0,0,1,13.55-10.55,61.11,61.11,0,0,1,16.85-5.13,102.07,102.07,0,0,1,15.39-1.36A114.63,114.63,0,0,1,422.9,73.6,64.42,64.42,0,0,1,440,78.44,37.4,37.4,0,0,1,453.78,88.7q5.63,6.67,5.62,17.33a29.41,29.41,0,0,1-1.45,9.1,37.4,37.4,0,0,1-3.88,8.32,41.15,41.15,0,0,1-5.42,7,51.16,51.16,0,0,1-6.1,5.43q4.08,5,7.94,9.77a91.16,91.16,0,0,1,7,9.78,51,51,0,0,1,5,10.94,43.47,43.47,0,0,1,1.93,13.46A40.33,40.33,0,0,1,458.62,200.8Zm-23.23-41.62a50.4,50.4,0,0,0-7.07-15.88,26.6,26.6,0,0,0-10-8.81,28.67,28.67,0,0,0-11.61-2.9A28,28,0,0,0,395.12,134a22.48,22.48,0,0,0-9.39,8.23q-4,5.81-6.29,15.39a102.43,102.43,0,0,0-2.33,23.72,49.46,49.46,0,0,0,1.94,12,62.67,62.67,0,0,0,5.71,14.23,42.52,42.52,0,0,0,9.49,11.81,19.9,19.9,0,0,0,13.45,4.94,16.66,16.66,0,0,0,11.91-4.17,45.77,45.77,0,0,0,9.68-11.22,62.63,62.63,0,0,0,6.49-13.85,39.92,39.92,0,0,0,2.32-11.81Q438.1,169,435.39,159.18ZM407.9,79.12q-15.11-.2-22.56,10.65t-7.45,31.56v2.32a13.14,13.14,0,0,0,.29,2.71,5.36,5.36,0,0,0,1,2.23,2.2,2.2,0,0,0,1.84.87,13.39,13.39,0,0,0,3-1.65q2.61-1.64,6.29-3.68a68.44,68.44,0,0,1,8.13-3.77,23.85,23.85,0,0,1,8.71-1.75,28.25,28.25,0,0,1,8.91,1.55,72,72,0,0,1,8.62,3.49c2.64,1.29,4.84,2.45,6.58,3.48a10.83,10.83,0,0,0,3.19,1.55,2,2,0,0,0,1.75-.87,6.66,6.66,0,0,0,.87-2.23,19.34,19.34,0,0,0,.38-2.61c.07-.84.1-1.58.1-2.23Q437.52,79.31,407.9,79.12Z"/><path d="M587.66,185.41a87.21,87.21,0,0,1-12.19,25.36,61.88,61.88,0,0,1-18.88,17.62,46.73,46.73,0,0,1-24.4,6.59q-15.29,0-26.81-7.46a62.85,62.85,0,0,1-19.26-19.85,97.06,97.06,0,0,1-11.72-28.46,137.27,137.27,0,0,1-4-33.1A78.2,78.2,0,0,1,476,116.68a80.26,80.26,0,0,1,14.62-23.91A69.6,69.6,0,0,1,511.48,76.7a53.86,53.86,0,0,1,24.39-5.91,38.07,38.07,0,0,1,23.62,7.94,68.79,68.79,0,0,1,17.72,20.33,104.44,104.44,0,0,1,11,27.3,118.41,118.41,0,0,1,3.77,29A102.37,102.37,0,0,1,587.66,185.41Zm-13-28.95a124.13,124.13,0,0,0-5.81-19.55,130.62,130.62,0,0,0-9-18.78,94.44,94.44,0,0,0-11.52-16A56.29,56.29,0,0,0,534.9,91,29.28,29.28,0,0,0,520,86.86a28.74,28.74,0,0,0-13.85,3.39,34.5,34.5,0,0,0-10.94,9.39,44.72,44.72,0,0,0-7.16,13.94,56,56,0,0,0-2.52,17A93.54,93.54,0,0,0,487.66,150a112.23,112.23,0,0,0,6.1,19.65,110.78,110.78,0,0,0,9.59,18.2,87.15,87.15,0,0,0,12.29,15.1,55.44,55.44,0,0,0,14.42,10.26A36.24,36.24,0,0,0,546.13,217a22.51,22.51,0,0,0,12.59-3.68,33.36,33.36,0,0,0,9.58-9.68,50.15,50.15,0,0,0,6.2-13.55,54.69,54.69,0,0,0,2.23-15.49A89.12,89.12,0,0,0,574.69,156.46Z"/><path d="M715.06,185.41a87.23,87.23,0,0,1-12.2,25.36A61.88,61.88,0,0,1,684,228.39,46.7,46.7,0,0,1,659.59,235q-15.3,0-26.82-7.46a62.85,62.85,0,0,1-19.26-19.85,96.78,96.78,0,0,1-11.71-28.46,137.27,137.27,0,0,1-4-33.1,78.39,78.39,0,0,1,5.51-29.43A80.26,80.26,0,0,1,618,92.77,69.85,69.85,0,0,1,638.87,76.7a53.9,53.9,0,0,1,24.4-5.91,38.09,38.09,0,0,1,23.62,7.94A68.76,68.76,0,0,1,704.6,99.06a104.44,104.44,0,0,1,11,27.3,117.93,117.93,0,0,1,3.77,29A102.7,102.7,0,0,1,715.06,185.41Zm-13-28.95a126.29,126.29,0,0,0-5.81-19.55,132.78,132.78,0,0,0-9-18.78,95,95,0,0,0-11.52-16A56.69,56.69,0,0,0,662.3,91a29.34,29.34,0,0,0-14.91-4.16,28.7,28.7,0,0,0-13.84,3.39,34.39,34.39,0,0,0-10.94,9.39,44.3,44.3,0,0,0-7.16,13.94,56,56,0,0,0-2.52,17A93.54,93.54,0,0,0,615.06,150a112.25,112.25,0,0,0,15.68,37.85,86.74,86.74,0,0,0,12.3,15.1,55.44,55.44,0,0,0,14.42,10.26A36.21,36.21,0,0,0,673.53,217a22.45,22.45,0,0,0,12.58-3.68,33.4,33.4,0,0,0,9.59-9.68,50.13,50.13,0,0,0,6.19-13.55,54.33,54.33,0,0,0,2.23-15.49A89.78,89.78,0,0,0,702.09,156.46Z"/><path d="M836.67,221.62A38.27,38.27,0,0,1,825.44,233a48.09,48.09,0,0,1-15.1,6.49,68,68,0,0,1-16.07,2,58.89,58.89,0,0,1-13.84-1.75,75.24,75.24,0,0,1-14.33-5,80.59,80.59,0,0,1-13.46-7.94,54.83,54.83,0,0,1-11-10.55,45.91,45.91,0,0,1-7.17-12.87,35,35,0,0,1-1.93-14.72l.19-1.74a29.12,29.12,0,0,1,6.87-5.61q3.2-1.75,8.43-1.17c.12.39.25.84.38,1.36a5.72,5.72,0,0,1,.2,1.35,14.49,14.49,0,0,1-.87,4.94,14,14,0,0,0-.88,4.74,50.47,50.47,0,0,0,2.91,17.33A41,41,0,0,0,758,223.66a38,38,0,0,0,12.82,9.1,40.79,40.79,0,0,0,16.6,3.29,44.32,44.32,0,0,0,10.67-1.46A36.68,36.68,0,0,0,808.86,230a29.42,29.42,0,0,0,8.25-7.64,18.14,18.14,0,0,0,3.3-10.94,17.37,17.37,0,0,0-5.54-13.17A55.16,55.16,0,0,0,801,189q-8.34-4.06-18-7.74a128.78,128.78,0,0,1-18.05-8.43A49.54,49.54,0,0,1,751,161.41q-5.53-6.67-5.53-16.75a20.21,20.21,0,0,1,5.13-14,36.71,36.71,0,0,1,12.49-9,57.68,57.68,0,0,1,15.49-4.45,71.29,71.29,0,0,1,14.32-.77c3.23.25,6.59.61,10.07,1.06a77.9,77.9,0,0,1,10.26,2,51.63,51.63,0,0,1,9.68,3.68,34.45,34.45,0,0,1,8.33,5.81l1.16,3.29q-.39.58-3,4.74c-1.74,2.78-3.62,5.72-5.61,8.81l-5.52,8.52c-1.68,2.59-2.59,3.94-2.71,4.07l-2.91-2.13q.58-6,.58-12.39a24.36,24.36,0,0,0-1.84-10.07,17.2,17.2,0,0,0-5-6.58,20.56,20.56,0,0,0-7.55-3.68,36.88,36.88,0,0,0-9.58-1.16,61.22,61.22,0,0,0-8.33.58,37,37,0,0,0-8.13,2,29.71,29.71,0,0,0-7.17,3.87,21.53,21.53,0,0,0-5.61,6.29v1.55q-.39,5,5.52,9.1A95.27,95.27,0,0,0,780.43,154q9,4.08,19.65,8.52a125.45,125.45,0,0,1,19.75,10.36A62.33,62.33,0,0,1,835,186.48a28.84,28.84,0,0,1,6.1,18.39Q841.12,214.76,836.67,221.62Z"/></svg>