<svg id="Layer_1" data-name="Layer 1" xmlns="http://www.w3.org/2000/svg" viewBox="0 0 1953 303"><defs><style>.cls-1{fill:#202020;}</style></defs><path class="cls-1" d="M67.48,110.59c-.3.46-.6.92-.87,1.4C66.77,112,67,111.67,67.48,110.59Z"/><path class="cls-1" d="M226.76,97.77c-.09-.09-.18-.21-.26-.29C226.66,97.7,226.72,97.76,226.76,97.77Z"/><path class="cls-1" d="M52.54,175l0-.09c-.08-.13-.14-.3-.2-.42Z"/><path class="cls-1" d="M66.7,87.4a128.35,128.35,0,0,0-7.41,13.28,119.41,119.41,0,0,0-4.78,11,88.77,88.77,0,0,0-3.42,11.71,87.62,87.62,0,0,0-2,15.64,97.93,97.93,0,0,0,.26,18.18c.17,1.51.35,3,.53,4.53s.51,3,.76,4.46.56,2.93.89,4.36.62,2.87,1,4.26a28.28,28.28,0,0,1,1.72,4.47c.53,1.69,1.14,3.5,1.69,5.36a45.54,45.54,0,0,0,4.28,10.2l.29,2.57a24.12,24.12,0,0,1,3.17,6.26l-.25,0A33.9,33.9,0,0,1,66,207.91a24.47,24.47,0,0,0,1.92,3.15l-.25,0c.7,1.13,1.35,2.29,2.08,3.4l-.62-.43c3.48,4.59,6.73,9.45,9.65,13.73l.45-.87a34.62,34.62,0,0,0,2.12,3.19c.7,1,1.37,1.83,2,2.64,1.32,1.61,2.62,2.93,3.85,4.26a101,101,0,0,1,8.08,9l-.24.05c5.29,3.64,8.81,7.18,12.72,10.6a48.22,48.22,0,0,0,6.45,4.84,30.88,30.88,0,0,0,8.63,3.62c-1.68-.44.49.72.3.84a42.66,42.66,0,0,0,8.68,2.33c2.48.34,4.23.17,4.43-.65a11.75,11.75,0,0,1,3.48.9c.4.27.3.55.55.92.07-.72,4-.6,7.44-.61l-1.61.26a78.23,78.23,0,0,0,9.94-.52l-2-1.27c2.58,0,3,.39,3.29.69s.65.56,3.11,0l-.22-1.15c3.55-.35,6.39-.6,9.31-.63,1.46,0,2.88-.2,4.42-.34a29.73,29.73,0,0,0,4.88-.79A81.52,81.52,0,0,0,198.74,255l2.33-1.58,2.22-1.72,2.22-1.72,1.1-.87,1-.93,4.17-3.73,3.93-3.95a148.32,148.32,0,0,0,13.73-17c4-5.92,7.59-11.9,10.84-17.85.44-.24.89-.48,1.3-.73.68,0,1-1.93,1.23-3.91.14-1,.28-2,.47-2.77s.37-1.38.73-1.53l.43-3.17c.5-.76,1.32-2.46,1.1-.89.24-.69.41-1.21.53-1.64a10.8,10.8,0,0,0,.19-1.11c.07-.65.06-1.22.14-2.28l1.56-2.82a34.94,34.94,0,0,0,1-4.12c.28-1.36.53-2.71.77-4.05.39-2.69.55-5.37.79-8s.12-5.4.23-8.17c-.05-2.78,0-5.63,0-8.63.68-7.22-.28-17.73-3-28a108,108,0,0,0-5-14.76c-.87-2.33-2-4.46-3-6.51-.51-1-.95-2-1.49-2.94L236.78,97c-.73-1.16-1.41-2.37-2.14-3.57s-1.52-2.36-2.26-3.57c-1.41-2.47-3.08-4.82-4.65-7.29-.41-.61-.78-1.25-1.21-1.84l-1.3-1.79c-.87-1.2-1.73-2.41-2.6-3.62s-1.88-2.33-2.82-3.5L218.37,70l-.72-.88-.78-.82c-8.05-9-18.06-16.77-29-20.55a5.29,5.29,0,0,0-2.59-.69l-2.4-1-1.2-.52-1.22-.44-4.94-1.72c-1.65-.55-3.36-.94-5-1.41L168,41.26l-2.57-.49-3.91-.72c-1.23-.18-2.72-.3-4.39-.47l-2.63-.25c-.92-.08-1.89-.06-2.88-.09a78.69,78.69,0,0,0-12.88.69l-3.3.55a31.08,31.08,0,0,0-3.22.64c-2.09.55-4.12,1.11-6,1.67l-8.87,2.6,7,5.42A15,15,0,0,0,135.19,54c3-.37,4.67-1.58,5-2.25.11-.33,0-.6-.47-.78a19,19,0,0,0-2.37-.46,16,16,0,0,1-4-1.21,12,12,0,0,1-4.51-3.63l-.87,3.76c1.85,0,3.94-.1,6.24-.2,1.16,0,2.39.08,3.67.1l2,.06,1,0,1,.11-.43.3,3.65,0a32.85,32.85,0,0,1,3.33.1l3.08.18c1,0,1.95,0,2.87.16,1.86.18,3.63.26,5.39.29s3.49.2,5.3.17c.39.89,2.39,1.5,4.6,2a20.46,20.46,0,0,1,5.62,1.66l-.26.06c3.21.28,6.06,1.94,8.87,3.42a49.19,49.19,0,0,0,8.23,4.44,2,2,0,0,1-1.82-.35l3.05,1.64,1.53.84,1.35.93c1.7,1.2,2.9,2.23,2.74,2.72l.81.55.8.62,1.62,1.28,1.66,1.33a18.46,18.46,0,0,1,1.66,1.41c2.13,2,4.39,4,6.31,6.11,1,1,2,2,2.92,3s1.76,2,2.6,2.91c1.75,1.77,3.09,3.49,4.4,4.63l-.49-.22c3.14,2.53,2.81,4.11,5.51,7.53,0,.26.1.56,0,.54a18.57,18.57,0,0,1,2.13,3.14c.35.61.69,1.26,1,1.92a18.9,18.9,0,0,1,1,2c.56,1.38,1.12,2.75,1.62,4,.25.61.5,1.17.73,1.68s.41,1,.61,1.37l-.56.44c1,2.63,2,5.24,2.78,8l-.73-3.08c1,.25,1.19,1.89,1.45,4.14.11,1.13.34,2.38.53,3.75a17.31,17.31,0,0,0,1.19,4.23,19.5,19.5,0,0,0,.55,2.09,21.64,21.64,0,0,0,.73,2.09c.57,1.38,1.25,2.77,1.93,4.18a32.89,32.89,0,0,1,1.57,4.36,11.82,11.82,0,0,1,.5,4.54c1,2.85-1.51-2.47-.65,1.82-1,.19-.69-2-1.4-.83a21,21,0,0,1,0,5.67,24.77,24.77,0,0,0-.17,6.4l-.75.18a23,23,0,0,1,.1,4.89c-.06.79-.15,1.56-.25,2.31s-.3,1.47-.46,2.17c-.31,1.42-.62,2.76-.8,4a16.79,16.79,0,0,0-.23,3.62c-.36,3.46-1.09,4.5-1.86,5.53s-1.36,2.12-1.58,5.77l-1.83,2.32a4.49,4.49,0,0,0-.36,2.67,3.89,3.89,0,0,1-.77,2.8c-.52-.41-2.06,3.75-1.89,1.7-.47.83-.88,1.68-1.27,2.55s-.86,1.72-1.25,2.61-.77,1.8-1.14,2.73-.85,1.83-1.28,2.77a38.25,38.25,0,0,1-3.09,5.69c-.62,1-1.28,1.9-2,2.84a32.65,32.65,0,0,1-2.49,2.69,9.83,9.83,0,0,1-2.12,4.17c-1,1.39-2.06,2.7-2.23,3.64-.54-.1-6.95,7.34-3.93,2.42.26-.42.85-1,1-.84l-.08-1a16.58,16.58,0,0,0-3.11,2.64,36.72,36.72,0,0,0-2.57,2.88,30.61,30.61,0,0,1-5.47,5.71c1.42-.87,3.08-2.34,2.27-1-1.36,1.09-2.69,2.21-4.14,3.17l.5-1.13c-2.17,1.41-4.25,2.92-6.51,4.13l1.31.07c-1.71.85-3,1.18-4.24,1.69a10.5,10.5,0,0,0-4.11,2.55c-1.41,1.47,3.63-.83.23,1.32-1.16.52-2.56.91-4,1.44l-2.22.78c-.77.24-1.56.44-2.36.67-3.17,1-6.56,1.71-9.63,2.45.8.71-.88,1-2.57,1.6l-.36-.69a18.42,18.42,0,0,1-2,.67,5.34,5.34,0,0,1-1.26.19,2.47,2.47,0,0,1-1.33-.31c-.67-.37-1.3-.68-4.52,0l.52-.57c-.52.58-1,1.13-1.6,1.7-2.95.93-3.79.5-4.67.2s-1.81-.54-5.17.24c1.3,0,1.59.44,1.14.81a4.3,4.3,0,0,1-3.27.31l.9-.63c-1.8-.05-2.45.18-3.6-.17,1.11-.22.7-.92-1.86-1.28.62-.16,1.25-.37,1.86-.57-1.67.18-3.35.25-5.05.27-1.73-.87-4.06-1.53-6-2.35s-3.7-1.65-4.15-2.46l-3.7-2.21c-2-1.16-4.11-2.54-5.23-2.65,1.76.44-1.77-2.52-.23-2.38A19,19,0,0,1,110,242.3a15.75,15.75,0,0,1-4.08-4.16l.42.27c-1.6-1.83-3.16-3.45-4.69-5s-3-3-4.46-4.4-2.84-2.89-4.14-4.47a35.92,35.92,0,0,1-3.65-5.18c-.45.84-2.83-3.2-3-1.63a33.39,33.39,0,0,1-3.82-5.3c-1-1.8-1.84-3.52-2.62-5.06-1.47-3.12-2.82-5.43-5.06-6.13-2.13-3.63-1.48-4.81-2.25-6.82l.58.83a79.49,79.49,0,0,1-6-14.62,14,14,0,0,0-2-2.95,11.18,11.18,0,0,1-1.79-4.85c.51.74.61.6.52,0s-.38-1.54-.56-2.49c.35,1.19.65,1.51.56-1.07a5,5,0,0,1-.7-1.31s.06-.14.14-.1a10.94,10.94,0,0,0-.76-2.26c-.1-.06-.09.47,0,1.21-.12-.06-.21.09-.29.58a9.51,9.51,0,0,0-.05-1.39c0-.49,0-1-.11-1.52-.11-1-.27-2.11-.41-3.08a13.78,13.78,0,0,1-.19-2.55c0-.68.12-1.14.38-1.27-.68-4.79-1-8.93-1.35-12.91-.06-1-.12-2-.17-3s0-2-.06-2.94c-.06-2,.07-3.94.2-6,.66-.83.93,1.13.87,3.48.16-1.91.28-3.82.55-5.72.39.09.38.92.25,1.94s-.28,2.27-.31,3.16A34.56,34.56,0,0,0,63,130.61c.19-1.75.39-3.53.6-5.35a52.84,52.84,0,0,1,.89-5.55,25.91,25.91,0,0,1,2-5.52l-.08-1.78.25-.42c-.35-.09-.15-1.94.18-3.1.53-.41.9-.25,1.31-.45s.83-.76,1.6-2.57c1.77-2.62,3.4-8.16,5.2-11.89-1.23,1.84-1.2,1-.93.09,1-1.73,2.17-2.35,2.78-3.77l.89.36c-.58.08-.08-1.14.6-2.47a23.44,23.44,0,0,0,1.68-3.14c1.22-.49-1.32,2.85-1.18,3.55l2.36-3.32,1.14-1.46c.6-.78,1.17-1.58,3.77-4.56,2.38-3.56-1.2-.05-.41-2.09,2.44-2.89,4.74-5.93,8.45-8.31l-1.59.26C97.57,64,101.41,61.7,106,60a105.68,105.68,0,0,1,13.69-8.66c3.64-2,6.3-3.24,8-4.21s2.43-1.65,2.48-2.16-.58-.81-1.62-1a25.2,25.2,0,0,0-4.38,0c-1.69.19-3.56.44-5.27.81s-3.27.74-4.38,1.1l-1.82.58A66.09,66.09,0,0,0,86.91,61.55,97.28,97.28,0,0,0,76.83,72.49,120.76,120.76,0,0,0,66.7,87.4Z"/><path d="M123.66,184.8c-2.36-4-4.63-8-6.87-12.05s-4.46-8-6.69-11.92L106.69,155c-1.16-1.89-2.33-3.76-3.51-5.56a57.27,57.27,0,0,0-3.68-4.92,13.52,13.52,0,0,0-1.74-1.74c-.14-.14-.22-.13-.32-.21s-.22-.16-.22-.1-.06,0,0,0a.94.94,0,0,0,.47.2l-3.6-9.94.51-.72.44-.6.88-1.13c.59-.74,1.19-1.45,1.8-2.15,1.22-1.38,2.48-2.73,3.81-4a70.59,70.59,0,0,1,8.48-7,74.89,74.89,0,0,1,9.47-5.58,74.14,74.14,0,0,1,10.26-4,72.24,72.24,0,0,1,21.7-3.11,81.76,81.76,0,0,1,21.29,3.12l.69.19a5.86,5.86,0,0,1,4.26,5.68c0,4.31.08,8.83.17,13.25l.21,6.67.31,6.67c.28,4.43.58,8.87,1.19,13.25a62.35,62.35,0,0,0,1.21,6.52,19.52,19.52,0,0,0,2.48,6.19,12.36,12.36,0,0,1-2.65-2.31,23.82,23.82,0,0,1-2.18-2.83A48.81,48.81,0,0,1,175,154.7a98.08,98.08,0,0,1-4.71-13.21c-.65-2.24-1.22-4.49-1.75-6.74s-1-4.52-1.44-6.79c-.9-4.56-1.59-9.06-2.16-13.77l5,5.87a89.24,89.24,0,0,0-18.24-1.1c-.75,0-1.49.08-2.24.13s-1.49.1-2.23.2c-1.48.19-3,.37-4.43.63s-2.91.56-4.36.86-2.88.72-4.28,1.2a58.9,58.9,0,0,0-8.3,3.13,68.16,68.16,0,0,0-7.86,4.2,69.32,69.32,0,0,0-7.31,5.17c-1.15,1-2.29,1.92-3.38,2.92-.54.5-1.07,1-1.57,1.52l-.74.76-.34.37-.15.16c0,.06-.1.12-.1.1l-3.6-9.94a16.72,16.72,0,0,1,2.06.83,14.35,14.35,0,0,1,1.47.94,9,9,0,0,1,1.13,1,12.06,12.06,0,0,1,1,.93,26.15,26.15,0,0,1,2.66,3.5,51.66,51.66,0,0,1,3.58,6.71c1,2.21,1.9,4.43,2.71,6.65s1.57,4.44,2.26,6.68c1.4,4.46,2.56,9,3.6,13.49S123.08,180.17,123.66,184.8Z"/><path d="M125.93,189.34c-2.28,2.74-4.51,5.08-6.29,7.48a22.33,22.33,0,0,0-2.24,3.42c-.12.27-.21.53-.33.77a5,5,0,0,0-.16.64c-.07.35.11.57.29.23a1.1,1.1,0,0,0,.16-.46,2.47,2.47,0,0,0,0-.73l0-.18v-.12a.82.82,0,0,0,0-.22,2.42,2.42,0,0,1-.09-.38.67.67,0,0,0-.1-.28.26.26,0,0,0,0-.12s0,0,0,0h.06a.22.22,0,0,1,.11,0c.48.1,1.51.38,2.63.59s2.44.4,3.64.52l1.71.07c.29,0,.57.05.86.05l.87-.05c1.15,0,2.33-.17,3.52-.26s2.43-.37,3.68-.71a63.72,63.72,0,0,0,7.81-2.34q4.05-1.49,8.4-3.31l4.47-1.84c1.53-.62,3.09-1.27,4.79-1.84a33,33,0,0,1-4.54,9.34,39.36,39.36,0,0,1-7,7.76,34.69,34.69,0,0,1-9.34,5.72,35.11,35.11,0,0,1-5.48,1.78l-2.92.49-.73.1-.76,0-1.5.06-1.5,0c-.51,0-1-.06-1.52-.11-1-.11-2-.18-3-.35a32.09,32.09,0,0,1-5.62-1.58,22.47,22.47,0,0,1-6-3.32c-.28-.23-.56-.49-.83-.74l-.4-.38-.42-.47c-.28-.32-.55-.65-.81-1s-.53-.83-.77-1.25a7.7,7.7,0,0,1-.62-1.44c-.09-.26-.17-.52-.25-.78l-.1-.39-.08-.48a9.48,9.48,0,0,1-.1-1.89,14.92,14.92,0,0,1,.26-1.65,9.79,9.79,0,0,1,1-2.38,10.33,10.33,0,0,1,1.21-1.7c.42-.49.83-.85,1.25-1.26s.85-.68,1.27-1a21,21,0,0,1,5.1-2.6,25.91,25.91,0,0,1,5.18-1.26A23.75,23.75,0,0,1,125.93,189.34Z"/><path d="M169.35,179.41a21,21,0,0,1,2.14-3.64,31.36,31.36,0,0,1,2.57-3.14,33.27,33.27,0,0,1,6.17-5.16,28.66,28.66,0,0,1,7.7-3.55,23.66,23.66,0,0,1,4.78-.84,17.31,17.31,0,0,1,5.9.64,10.94,10.94,0,0,1,1.64.6,11.77,11.77,0,0,1,1.66.84,14,14,0,0,1,3,2.48,11.81,11.81,0,0,1,2.44,4,9.08,9.08,0,0,1,.41,1.52A13.4,13.4,0,0,1,208,175a9.8,9.8,0,0,1-1.37,4.86c-.24.38-.5.75-.77,1.11a4,4,0,0,1-.39.46l-.39.39a9.64,9.64,0,0,1-.77.71,13.26,13.26,0,0,1-2.74,1.7,18.45,18.45,0,0,1-4.62,1.4,23.39,23.39,0,0,1-4.2.34,28.6,28.6,0,0,1-4-.26,29.12,29.12,0,0,1-4-.82,20.56,20.56,0,0,1-4-1.48,64.91,64.91,0,0,1,6.33-4.89c2-1.4,4-2.72,5.68-3.93a13.39,13.39,0,0,0,1.94-1.69c.21-.23.26-.43.18-.45s-.11,0-.15.06a1.28,1.28,0,0,0-.19.16,1.6,1.6,0,0,0-.28.35,3.61,3.61,0,0,0-.33.58l-.12.35a4.38,4.38,0,0,0-.13.43,4.59,4.59,0,0,0-.1.9,3.26,3.26,0,0,0,.05.88c.07.29.07.44.14.66a10.1,10.1,0,0,0,.45,1c.1.23.32.33.16.27a5.71,5.71,0,0,0-1.29-.21,21.19,21.19,0,0,0-2.41,0c-1.84.1-4,.33-6.19.59A100.78,100.78,0,0,1,169.35,179.41Z"/><path d="M1062,203.32a64.34,64.34,0,0,1-14.44,21.88,59.91,59.91,0,0,1-21,13.35,70.19,70.19,0,0,1-24.83,4.48q-18.16,0-31.94-6.78A63.3,63.3,0,0,1,946.74,217q-9.3-12.48-14.11-30.08a147.93,147.93,0,0,1-4.82-39,90.52,90.52,0,0,1,6.79-35.56,87,87,0,0,1,17.94-27.45,80.49,80.49,0,0,1,25.37-17.61A72.28,72.28,0,0,1,1007.23,61a35.68,35.68,0,0,1,7.87,1.32q5.25,1.31,11.49,3.5t12.91,5.25a93.94,93.94,0,0,1,12,6.56,48.42,48.42,0,0,1,8.86,7.22q3.49,3.72,3.5,7.44a8.33,8.33,0,0,1-2.84,6.34,51.11,51.11,0,0,1-5,4.16,29.06,29.06,0,0,0-7.88,7.22,55.77,55.77,0,0,0-5,8.42q-2.19,4.49-4.38,9.08a46.07,46.07,0,0,1-5.47,8.75l-1.75.22c-.73,0-1.6-.73-2.62-2.19s-1.39-2.62-1.1-3.5.66-3.28,1.53-7.22,1.75-8.09,2.63-12.47,1.67-8.35,2.41-11.92,1.09-5.58,1.09-6a18.3,18.3,0,0,0-3.17-10.83A26.11,26.11,0,0,0,1024.4,75a35.6,35.6,0,0,0-10.06-4.16,40.43,40.43,0,0,0-9.52-1.32,47.45,47.45,0,0,0-22.31,5.25,52.58,52.58,0,0,0-17.29,14.55A70.61,70.61,0,0,0,954,111.22a88.45,88.45,0,0,0-4.05,27.24A106.74,106.74,0,0,0,954,169.2a63.31,63.31,0,0,0,11.7,22.64,49.1,49.1,0,0,0,18.71,13.89,62.71,62.71,0,0,0,24.83,4.7,49.13,49.13,0,0,0,32.7-12.9,50.88,50.88,0,0,0,11.27-15.32,46.27,46.27,0,0,0,4.38-20.56,39.67,39.67,0,0,0-2.85-15.1,6.57,6.57,0,0,0,1.21-.87,2.18,2.18,0,0,1,1.2-.66q2.63,0,4.48,3.5a42,42,0,0,1,3.18,8.1,67.61,67.61,0,0,1,2,9.29,56,56,0,0,1,.66,7.11Q1067.39,190.32,1062,203.32Z"/><path d="M1179.29,217.83q-9.3,1.17-18.92,1.7t-18.16.53h-12.69c-2.48,0-5.8,0-10-.11s-8.47-.25-12.91-.55-8.75-.69-12.91-1.2a39.81,39.81,0,0,1-9.52-2.08,176,176,0,0,0,4.71-39.6q.11-20.11.11-40,0-13.13-.55-26.91a106.41,106.41,0,0,0-4.27-26.25,4.68,4.68,0,0,1,2.41-1.42,19.77,19.77,0,0,1,3.72-.77c1.31-.14,2.59-.25,3.83-.33s2.22-.11,3-.11q3.06,0,8.1.33a36.27,36.27,0,0,1,7.87,1.2l1.31,3.07a84,84,0,0,0-2.73,19.61q-.33,10.86-.33,20.06v25.85q0,8.55.11,18t.44,17.74c.22,5.55.51,10.49.87,14.79a40.5,40.5,0,0,0,1.42,8.88,8.82,8.82,0,0,0,5.26,2.74,51.07,51.07,0,0,0,5.9.33,48,48,0,0,0,12.14-2.19,120.58,120.58,0,0,0,15.76-5.69,84.76,84.76,0,0,0,14.43-8q6.45-4.48,8-9.08-2-11.37-4.38-23.52a121.14,121.14,0,0,1-2.4-23.52,8.4,8.4,0,0,1,.44-2.51c.29-.95.5-1.79.65-2.52l3.28-3.5,2.19,1.31a18.94,18.94,0,0,0-.44,5,35.65,35.65,0,0,0,.22,4.81q1.53,11.81,3.17,20.56t3.94,16.63q2.3,7.88,5.25,15.64t6.89,17.58A63.56,63.56,0,0,1,1179.29,217.83Z"/><path d="M1329,178.27a72.06,72.06,0,0,1-12.36,22.43,60.34,60.34,0,0,1-19.25,15.53,53.43,53.43,0,0,1-24.83,5.8q-15.54,0-27.35-6.56A59.63,59.63,0,0,1,1225.56,198a80.17,80.17,0,0,1-11.92-25.05,105.28,105.28,0,0,1-4.05-29.2,61.91,61.91,0,0,1,5.58-26.15A69.26,69.26,0,0,1,1230,96.45a70.22,70.22,0,0,1,21.33-14.11,62.46,62.46,0,0,1,24.73-5.14,43.12,43.12,0,0,1,24.06,7,63.32,63.32,0,0,1,18,17.94,92.2,92.2,0,0,1,15.2,49.66A80.75,80.75,0,0,1,1329,178.27Zm-13.24-25.59a102,102,0,0,0-5.9-17.18,109.82,109.82,0,0,0-9.19-16.62,83.13,83.13,0,0,0-11.71-14,58.14,58.14,0,0,0-13.67-9.74,33.19,33.19,0,0,0-15.2-3.72,33.66,33.66,0,0,0-14.12,3,32.56,32.56,0,0,0-11,8.21,39.24,39.24,0,0,0-7.22,12.25,42.67,42.67,0,0,0-2.63,15.1,77,77,0,0,0,4.81,25.92,92,92,0,0,0,13.24,24.61,76.42,76.42,0,0,0,19.58,18.38,43.16,43.16,0,0,0,23.85,7.22,25.54,25.54,0,0,0,12.8-3.28,32.67,32.67,0,0,0,9.84-8.54,42.66,42.66,0,0,0,8.64-25.59A67.45,67.45,0,0,0,1315.8,152.68Z"/><path d="M1473.1,95.91c-.8,3.86-1.83,8.35-3.06,13.45s-2.59,10.43-4,16-2.88,10.65-4.27,15.31-2.59,8.58-3.61,11.71-1.75,4.7-2.18,4.7q.87-10.71,2.29-22.09a177.78,177.78,0,0,0,1.43-22.1,16.8,16.8,0,0,0-2.85-9.51,25.37,25.37,0,0,0-7.11-7.12,35.08,35.08,0,0,0-9.3-4.37,32.4,32.4,0,0,0-9.4-1.53,7.91,7.91,0,0,0-4.82,1.31,9.12,9.12,0,0,0-2.73,3.28,12.14,12.14,0,0,0-1.2,4.49c-.15,1.68-.22,3.39-.22,5.14q0,8.74.43,20.13t1,23.29q.54,11.92,1.2,23.52t1.21,20.57q.54,9,1.42,20.12a3.17,3.17,0,0,1-2.08,3,15.76,15.76,0,0,1-4.81,1.31,44.81,44.81,0,0,1-5.36.33h-7.66a17.76,17.76,0,0,1-4.38-.55,8,8,0,0,1-3.61-1.86,4.53,4.53,0,0,1-1.2-3.94q1.75-26.46,3.17-52.94t1.43-52.94c0-1.75-.08-3.5-.22-5.25a12.6,12.6,0,0,0-1.21-4.6,8.76,8.76,0,0,0-2.84-3.28,8.4,8.4,0,0,0-4.92-1.31,32.41,32.41,0,0,0-9.41,1.53,33.45,33.45,0,0,0-9.3,4.48,27.66,27.66,0,0,0-7.11,7.12,16.59,16.59,0,0,0-2.84,9.62,176.1,176.1,0,0,0,1.42,21.88q1.42,11.37,2.51,22.09-.64-.21-2.18-4.7c-1-3-2.23-6.81-3.61-11.49s-2.81-9.76-4.27-15.31-2.81-10.86-4-16-2.26-9.59-3.06-13.45a48.15,48.15,0,0,1-1.2-7.77,4.64,4.64,0,0,1,2.19-3.94,17.18,17.18,0,0,1,5.25-2.4,48.87,48.87,0,0,1,6-1.32,34.25,34.25,0,0,1,4.71-.44c3.93-.14,9.48-.21,16.62-.21h22.54q11.81,0,23.08.11t17.94.22l7.11.11a73.52,73.52,0,0,1,9.18,1.53,27.17,27.17,0,0,1,6.35,2.4c1.89,1,2.84,2.34,2.84,3.94A48.15,48.15,0,0,1,1473.1,95.91Z"/><path d="M1600.86,214.37a4.12,4.12,0,0,1-.65,1,7.49,7.49,0,0,1-.77.65,1.43,1.43,0,0,0-.44,1.21h-20.56c-1,0-2-.77-3.06-2.3a7.32,7.32,0,0,1-1.54-3.61,139.88,139.88,0,0,1,1.64-21.33,138.54,138.54,0,0,0,1.65-21.33V117.89a32.25,32.25,0,0,0-11.38-2.62c-3.8-.14-7.66-.22-11.6-.22h-8.09c-3.21,0-6.45.08-9.74.22s-6.45.4-9.51.76a50.81,50.81,0,0,0-7.66,1.43,14,14,0,0,1-1.42.54,1.24,1.24,0,0,0-1,1.21l.88,9.84v33.47q0,8.32.11,16.41t.65,16.52q.55,8.43,1.65,18.48a5.9,5.9,0,0,1-2.52,1.75,13.45,13.45,0,0,1-3.61.88,32.72,32.72,0,0,1-3.72.22h-3.06q-3.28,0-6-.11a11.5,11.5,0,0,1-4.7-1.09,6.8,6.8,0,0,1-3.06-3.18,15,15,0,0,1-1.1-6.56q0-15.09,1-30.52t1.64-31.06q.64-15.64.54-31a218.83,218.83,0,0,0-2.29-30.19l4.15-3.07h17.07a3,3,0,0,1,3.06,2.5,20.6,20.6,0,0,1,.55,5.86q-.12,3.38-.55,6.73A43.57,43.57,0,0,0,1517,100a13.26,13.26,0,0,0,1,5.32c.65,1.51,2.08,2.27,4.26,2.27l50.1.66a4,4,0,0,0,3-1.19,8.82,8.82,0,0,0,1.87-2.72L1574.94,82q2.4-2.18,6.89-2.28c3-.07,5.5-.11,7.55-.11q7.65,0,10.06,4.26T1601.63,95a125,125,0,0,1-1.64,15.64,108.83,108.83,0,0,0-1.43,17.51V159.9a262.16,262.16,0,0,0,1.32,26.25q1.3,13.13,1.31,26.25A4.55,4.55,0,0,1,1600.86,214.37Z"/><path d="M1640.68,213.72a3.94,3.94,0,0,1-.66,1,7.52,7.52,0,0,1-.77.66,1.42,1.42,0,0,0-.43,1.2h-20.39c-1,0-2-.77-3-2.3a7.45,7.45,0,0,1-1.51-3.83,137.24,137.24,0,0,1,1.64-21.11,123.81,123.81,0,0,0,1.42-21.33q0-22.31-.11-43.53T1615,81.14q2.38-2,6.83-2.08c3-.07,5.46-.11,7.48-.11,1.16,0,2.39,0,3.69.11a8.83,8.83,0,0,1,3.47.88,6.62,6.62,0,0,1,2.49,2.18,7.13,7.13,0,0,1,1,4q-.44,10.5-1,20.68t-.55,20.67v31.72q0,13.13,1.31,26.25a262.2,262.2,0,0,1,1.31,26.26A4.76,4.76,0,0,1,1640.68,213.72Z"/><path d="M1768.22,145.9q-.56,7.22-1.32,16.3t-1.86,19q-1.1,10-2.62,18.16a82.22,82.22,0,0,1-3.5,13.45c-1.31,3.5-2.85,5.25-4.6,5.25-.87,0-2.33-1.27-4.37-3.83s-4.16-5.5-6.35-8.86-4.23-6.56-6.12-9.62-3.14-5.18-3.72-6.35a74.65,74.65,0,0,0-6.13-9.62q-4.82-6.78-11.48-15.1t-14.33-17.28q-7.66-9-14.55-16.41t-12.36-12.36q-5.48-4.92-7.88-5.36a29.26,29.26,0,0,0-1.31,7c-.14,2.34-.22,4.74-.22,7.22q0,17.05,1.32,34.46a242.61,242.61,0,0,0,5,34.23,35.06,35.06,0,0,0,1.09,4.16q.87,2.85,1.86,5.91t1.75,5.58a18.64,18.64,0,0,1,.77,2.95,3,3,0,0,1-1.32,2.52,12.34,12.34,0,0,1-3.06,1.64,21.81,21.81,0,0,1-3.5,1,16,16,0,0,1-2.84.33q-3.74,0-5.25-4.27a37.43,37.43,0,0,1-2-9.84,89.38,89.38,0,0,1-.22-10.94c.14-3.57.22-6.09.22-7.55q0-23.19-1.1-45.94t-1.09-45.94c0-1,0-2.3.11-3.83a22.42,22.42,0,0,1,.66-4.49,11.81,11.81,0,0,1,1.64-3.82,3.65,3.65,0,0,1,3.28-1.64q5.91,0,13.89,5.68a127.48,127.48,0,0,1,16.84,14.77q8.87,9.07,18.05,20.24t17.72,22.09L1745.14,165q7.21,9.3,12,14.77c0-3.36.11-6.71.33-10.07s.33-6.7.33-10.06q0-4.59-.88-13.56t-2.41-18.49q-1.53-9.51-3.28-17.94c-1.17-5.61-2.4-9.66-3.72-12.14a24.91,24.91,0,0,0-4.15-6,9.65,9.65,0,0,1-2.85-6.45,3.15,3.15,0,0,1,1.42-2.74,9.82,9.82,0,0,1,3.39-1.42,25.57,25.57,0,0,1,3.94-.55c1.32-.07,2.33-.1,3.07-.1h5.9a7,7,0,0,1,5.91,3,21.79,21.79,0,0,1,3.39,7.55,53.25,53.25,0,0,1,1.53,10.39q.33,5.79.33,11.48t-.22,10.83q-.23,5.15-.22,8.21c0,.29,0,.91-.11,1.86a4.39,4.39,0,0,0,.33,2.29C1768.91,137.73,1768.58,141.08,1768.22,145.9Z"/><path d="M1910.53,203.22a29.32,29.32,0,0,1-8.1,7.65,54,54,0,0,1-11.48,5.58,127.85,127.85,0,0,1-12.8,3.83,99.33,99.33,0,0,1-12.25,2.19,93.84,93.84,0,0,1-9.85.65,63.49,63.49,0,0,1-49.55-22.42,74.42,74.42,0,0,1-13.67-24.29,89.86,89.86,0,0,1-4.81-29.64,58.1,58.1,0,0,1,6.34-27.13,68.27,68.27,0,0,1,16.52-20.89,77.14,77.14,0,0,1,23-13.45,73.08,73.08,0,0,1,25.92-4.82,96.51,96.51,0,0,1,12.69,1.27,130.72,130.72,0,0,1,17.28,3.83,60.26,60.26,0,0,1,15.32,6.72q6.56,4.15,6.56,9.84l-12.47,14.22q-1.76,0-4.81-4.59a117.48,117.48,0,0,0-7.66-10.07,53.75,53.75,0,0,0-11.27-10,27.37,27.37,0,0,0-15.64-4.48,39.8,39.8,0,0,0-20,5.15,53.07,53.07,0,0,0-15.64,13.48,65.54,65.54,0,0,0-10.28,18.84,64,64,0,0,0-3.72,21.48,38.91,38.91,0,0,0,2.74,13.81,76.41,76.41,0,0,0,7.22,14.25,84.91,84.91,0,0,0,10.5,13.26,88.48,88.48,0,0,0,12.68,11,69.22,69.22,0,0,0,13.57,7.56,34.36,34.36,0,0,0,13.23,2.85q5.91,0,10.62-.33a20.21,20.21,0,0,0,8.2-2.18,12.19,12.19,0,0,0,5.36-5.91q1.86-4,1.86-11.49a95.74,95.74,0,0,0-1.86-20.67,43.73,43.73,0,0,0-5.14-13.45,24.77,24.77,0,0,0-7.88-8.1,44.89,44.89,0,0,0-10.17-4.59q-5.58-1.76-11.71-3.06a119.82,119.82,0,0,1-12.68-3.51,3.64,3.64,0,0,1,2.29-2.07,17.45,17.45,0,0,1,4-1.1c1.46-.22,2.92-.36,4.38-.44s2.62-.11,3.5-.11q14.43,0,24.06-.21a124.77,124.77,0,0,1,15.64.43c4,.44,7,1.46,8.86,3.07s3.18,4.15,3.83,7.65a65.42,65.42,0,0,1,.66,14q-.33,8.76-.55,22.1l-.22,8.31.22,6.13A15.68,15.68,0,0,1,1910.53,203.22Z"/><path d="M364.69,226.47a3.2,3.2,0,0,1-.68,1.16l-.78.78a2.66,2.66,0,0,0-.58,1.35H342.52A2.19,2.19,0,0,1,341,229a9.25,9.25,0,0,1-1.45-1.94,12,12,0,0,1-1.07-2.32,6.36,6.36,0,0,1-.39-1.94,188,188,0,0,1,1.55-24,187.44,187.44,0,0,0,1.55-24.2q0-25.35-.19-49.37t-1.74-49c1.55-1.55,3.8-2.39,6.77-2.52s5.42-.19,7.36-.19a36.76,36.76,0,0,1,3.68.19,10.05,10.05,0,0,1,3.48,1A6,6,0,0,1,363,77.1a8,8,0,0,1,.78,4.55q-.39,11.82-1,23.62t-.58,23.43v36q0,15.1,1.35,29.82T365,224.15A7.07,7.07,0,0,1,364.69,226.47Z"/><path d="M478.62,202.56a65.58,65.58,0,0,1-14.52,17A72.42,72.42,0,0,1,445.32,231a49.26,49.26,0,0,1-18.78,4.16,46.81,46.81,0,0,1-18.29-4.06A64.87,64.87,0,0,1,390.63,220a60,60,0,0,1-13.26-16.75,43.28,43.28,0,0,1-5.23-20.91,47.66,47.66,0,0,1,1.74-13.46,55.92,55.92,0,0,1,4.55-11,65.4,65.4,0,0,1,6.58-9.78q3.78-4.65,7.84-9.68a48,48,0,0,1-6.09-5.52,45,45,0,0,1-5.43-7.07,38.45,38.45,0,0,1-3.87-8.23,28.18,28.18,0,0,1-1.45-9q0-10.64,5.52-17.42a38,38,0,0,1,13.55-10.55,61.47,61.47,0,0,1,16.85-5.14,103.25,103.25,0,0,1,15.39-1.35,114.63,114.63,0,0,1,15.58,1.26A64.42,64.42,0,0,1,460,80.2a37.4,37.4,0,0,1,13.74,10.26q5.63,6.67,5.62,17.33a29.45,29.45,0,0,1-1.45,9.1,37.4,37.4,0,0,1-3.88,8.32,41.15,41.15,0,0,1-5.42,7,51,51,0,0,1-6.1,5.42q4.08,5,7.94,9.78a89.2,89.2,0,0,1,7,9.78,51,51,0,0,1,5,10.94,43.45,43.45,0,0,1,1.93,13.45A40.37,40.37,0,0,1,478.62,202.56Zm-23.23-41.63a50.34,50.34,0,0,0-7.07-15.87,26.51,26.51,0,0,0-10-8.81,28.69,28.69,0,0,0-11.61-2.91,28.19,28.19,0,0,0-11.62,2.42,22.62,22.62,0,0,0-9.39,8.23q-4,5.82-6.29,15.4a102.34,102.34,0,0,0-2.33,23.71,49.53,49.53,0,0,0,1.94,12,62.85,62.85,0,0,0,5.71,14.23,42.67,42.67,0,0,0,9.49,11.81,19.9,19.9,0,0,0,13.45,4.93,16.65,16.65,0,0,0,11.91-4.16,45.63,45.63,0,0,0,9.68-11.23,62.56,62.56,0,0,0,6.49-13.84A40,40,0,0,0,458.1,185Q458.1,170.72,455.39,160.93ZM427.9,80.87q-15.11-.18-22.56,10.65t-7.45,31.56v2.33a13.21,13.21,0,0,0,.29,2.71,5.26,5.26,0,0,0,1,2.22,2.2,2.2,0,0,0,1.84.87,13.1,13.1,0,0,0,3-1.64c1.74-1.1,3.84-2.32,6.29-3.68a68.44,68.44,0,0,1,8.13-3.77,23.65,23.65,0,0,1,8.71-1.75,28.25,28.25,0,0,1,8.91,1.55,72,72,0,0,1,8.62,3.49c2.64,1.29,4.84,2.45,6.58,3.48a10.83,10.83,0,0,0,3.19,1.55,2,2,0,0,0,1.75-.87,6.66,6.66,0,0,0,.87-2.23,19.34,19.34,0,0,0,.38-2.61c.07-.84.1-1.58.1-2.23Q457.52,81.07,427.9,80.87Z"/><path d="M607.66,185.81a87.27,87.27,0,0,1-12.19,25.37,62,62,0,0,1-18.88,17.61,46.73,46.73,0,0,1-24.4,6.59q-15.29,0-26.81-7.46a62.81,62.81,0,0,1-19.26-19.84,97.29,97.29,0,0,1-11.72-28.46,137.36,137.36,0,0,1-4-33.11A78.24,78.24,0,0,1,496,117.08a80.39,80.39,0,0,1,14.62-23.91A69.6,69.6,0,0,1,531.48,77.1a53.86,53.86,0,0,1,24.39-5.91,38.07,38.07,0,0,1,23.62,7.94,68.91,68.91,0,0,1,17.72,20.33,104.44,104.44,0,0,1,11,27.3,118.41,118.41,0,0,1,3.77,29A102.37,102.37,0,0,1,607.66,185.81Zm-13-28.94a123.93,123.93,0,0,0-5.81-19.56,131.65,131.65,0,0,0-9-18.78,94.84,94.84,0,0,0-11.52-16A56,56,0,0,0,554.9,91.43,29.18,29.18,0,0,0,540,87.27a28.85,28.85,0,0,0-13.85,3.38A34.5,34.5,0,0,0,515.21,100,44.83,44.83,0,0,0,508.05,114a56.09,56.09,0,0,0-2.52,17,93.47,93.47,0,0,0,2.13,19.36,112.23,112.23,0,0,0,6.1,19.65,110.78,110.78,0,0,0,9.59,18.2,87.15,87.15,0,0,0,12.29,15.1,55.72,55.72,0,0,0,14.42,10.27,36.36,36.36,0,0,0,16.07,3.77,22.43,22.43,0,0,0,12.59-3.68A33.24,33.24,0,0,0,588.3,204a50.15,50.15,0,0,0,6.2-13.55A54.58,54.58,0,0,0,596.73,175,89,89,0,0,0,594.69,156.87Z"/><path d="M735.06,185.81a87.29,87.29,0,0,1-12.2,25.37A62,62,0,0,1,704,228.79a46.7,46.7,0,0,1-24.39,6.59q-15.3,0-26.82-7.46a62.81,62.81,0,0,1-19.26-19.84,97,97,0,0,1-11.71-28.46,137.36,137.36,0,0,1-4-33.11,78.43,78.43,0,0,1,5.51-29.43A80.39,80.39,0,0,1,638,93.17,69.85,69.85,0,0,1,658.87,77.1a53.9,53.9,0,0,1,24.4-5.91,38.09,38.09,0,0,1,23.62,7.94A68.88,68.88,0,0,1,724.6,99.46a104.44,104.44,0,0,1,11,27.3,117.93,117.93,0,0,1,3.77,29A102.7,102.7,0,0,1,735.06,185.81Zm-13-28.94a126.08,126.08,0,0,0-5.81-19.56,133.83,133.83,0,0,0-9-18.78,95.4,95.4,0,0,0-11.52-16A56.4,56.4,0,0,0,682.3,91.43a29.24,29.24,0,0,0-14.91-4.16,28.81,28.81,0,0,0-13.84,3.38A34.39,34.39,0,0,0,642.61,100,44.41,44.41,0,0,0,635.45,114a56.09,56.09,0,0,0-2.52,17,93.47,93.47,0,0,0,2.13,19.36,112.25,112.25,0,0,0,15.68,37.85,86.74,86.74,0,0,0,12.3,15.1,55.72,55.72,0,0,0,14.42,10.27,36.33,36.33,0,0,0,16.07,3.77,22.37,22.37,0,0,0,12.58-3.68A33.27,33.27,0,0,0,715.7,204a50.13,50.13,0,0,0,6.19-13.55A54.23,54.23,0,0,0,724.12,175,89.69,89.69,0,0,0,722.09,156.87Z"/><path d="M856.55,211.33a38.39,38.39,0,0,1-11.23,11.33,48.19,48.19,0,0,1-15.1,6.49,68,68,0,0,1-16.07,2,59,59,0,0,1-13.85-1.75,75.15,75.15,0,0,1-14.32-5,80.19,80.19,0,0,1-13.46-7.94,55.15,55.15,0,0,1-11-10.55A46.13,46.13,0,0,1,754.32,193a35.21,35.21,0,0,1-1.94-14.72l.2-1.74a29.12,29.12,0,0,1,6.87-5.61c2.13-1.17,4.94-1.55,8.42-1.17.13.39.26.84.39,1.36a5.65,5.65,0,0,1,.19,1.35,14.49,14.49,0,0,1-.87,4.94,14,14,0,0,0-.87,4.74,50.47,50.47,0,0,0,2.91,17.33,40.69,40.69,0,0,0,8.25,13.85,38.09,38.09,0,0,0,12.81,9.1,40.86,40.86,0,0,0,16.6,3.29A44.79,44.79,0,0,0,818,224.31a37,37,0,0,0,10.77-4.56,29.15,29.15,0,0,0,8.25-7.64,18.12,18.12,0,0,0,3.3-10.94A17.36,17.36,0,0,0,834.75,188a55.34,55.34,0,0,0-13.88-9.29q-8.36-4.07-18-7.74a127.66,127.66,0,0,1-18.05-8.43,49.39,49.39,0,0,1-13.88-11.42q-5.53-6.68-5.53-16.75a20.21,20.21,0,0,1,5.13-14,36.77,36.77,0,0,1,12.48-9,57.79,57.79,0,0,1,15.49-4.45,71.39,71.39,0,0,1,14.33-.77c3.23.25,6.58.61,10.07,1.06a78.55,78.55,0,0,1,10.26,2,51.89,51.89,0,0,1,9.68,3.68,34.65,34.65,0,0,1,8.33,5.81l1.16,3.29q-.39.58-3,4.74t-5.62,8.81q-3,4.65-5.52,8.52c-1.67,2.59-2.58,3.94-2.71,4.07l-2.9-2.13q.59-6,.58-12.39a24.36,24.36,0,0,0-1.84-10.07,17.3,17.3,0,0,0-5-6.58,20.56,20.56,0,0,0-7.55-3.68,37,37,0,0,0-9.59-1.16,61,61,0,0,0-8.32.58,37.52,37.52,0,0,0-8.13,2,29.52,29.52,0,0,0-7.17,3.87,21.53,21.53,0,0,0-5.61,6.29v1.56q-.39,5,5.52,9.09a96.39,96.39,0,0,0,14.9,8.14q9,4.07,19.65,8.52a125,125,0,0,1,19.75,10.35,62.2,62.2,0,0,1,15.2,13.65,28.84,28.84,0,0,1,6.1,18.39Q861,204.46,856.55,211.33Z"/></svg>