<svg id="Layer_1" data-name="Layer 1" xmlns="http://www.w3.org/2000/svg" viewBox="0 0 1953 303"><defs><style>.cls-1{fill:#202020;}.cls-2{stroke:#fff;stroke-miterlimit:10;}.cls-3{fill:#fff;}</style></defs><path class="cls-1" d="M66.12,110.09c-.27.48-.54,1-.78,1.46C65.46,111.56,65.65,111.19,66.12,110.09Z"/><path class="cls-1" d="M228.07,97.06c-.08-.1-.16-.23-.24-.31A2.07,2.07,0,0,0,228.07,97.06Z"/><path class="cls-1" d="M54.94,174.38l0-.09c0-.14-.12-.3-.17-.42Z"/><path class="cls-1" d="M68.53,88.52a125.82,125.82,0,0,0-11.62,24A94.43,94.43,0,0,0,53.69,124a92.71,92.71,0,0,0-2,15.29A101.6,101.6,0,0,0,51.9,157c.17,1.49.33,3,.5,4.44s.48,2.92.72,4.37.53,2.88.84,4.28.59,2.82.95,4.18a40.32,40.32,0,0,1,1.53,4.43c.51,1.66,1.07,3.45,1.64,5.27a56.37,56.37,0,0,0,4.07,10.09l.49,2.44a35.27,35.27,0,0,1,3.06,6.19l-.19-.06A48.59,48.59,0,0,1,68,206.86,32.58,32.58,0,0,0,69.81,210l-.19,0c.68,1.12,1.32,2.27,2,3.37l-.53-.47,9.42,13.59.22-.69c.72,1.16,1.45,2.18,2.16,3.11s1.37,1.79,2,2.6c1.3,1.59,2.56,2.92,3.76,4.25,2.47,2.59,4.82,5.09,8,8.83h-.19c5,3.84,8.52,7.24,12.42,10.49s8.19,6.34,14.64,8.31c-1.59-.51.53.57.36.63,5.79,2.29,12.31,3.34,12.57,2.24A18.63,18.63,0,0,1,140,267c.39.2.31.38.57.64,0-.47,3.85-.26,7.25-.25l-1.58.16a75.35,75.35,0,0,0,9.75-.43l-2-.8c2.55,0,2.91.18,3.23.38s.62.36,3-.11l-.17-.76c3.51-.39,6.28-.79,9.11-1,1.41-.12,2.78-.39,4.26-.61a32.65,32.65,0,0,0,4.7-1,84,84,0,0,0,19.54-9.86l2.3-1.53,2.2-1.67,2.19-1.67,1.09-.85,1-.9,4.14-3.63,3.9-3.84a136.27,136.27,0,0,0,13.62-16.64,180.76,180.76,0,0,0,10.48-17.7c.34-.27.7-.54,1-.83.49-.07.89-1.92,1.3-3.8.21-.94.42-1.9.64-2.66a2.84,2.84,0,0,1,.66-1.53l.6-3.06c.42-.77,1.15-2.47.85-1,.23-.67.4-1.19.53-1.61s.16-.77.21-1.08c.1-.63.14-1.18.27-2.2l1.29-2.85a37.74,37.74,0,0,0,1-4.05c.27-1.34.52-2.67.76-4,.4-2.64.6-5.27.87-7.9s.21-5.31.36-8c0-2.74,0-5.55,0-8.51a96,96,0,0,0-3.15-27.54,110.94,110.94,0,0,0-4.79-14.6c-.83-2.31-1.94-4.42-2.86-6.45-.49-1-.89-2-1.41-2.93l-1.46-2.65c-.67-1.17-1.34-2.36-2-3.56s-1.47-2.35-2.2-3.55c-1.37-2.44-3-4.76-4.61-7.17-.4-.6-.77-1.22-1.2-1.8L224,79.85l-2.62-3.53c-.91-1.15-1.89-2.25-2.84-3.39l-1.44-1.69-.72-.85-.77-.8c-8.1-8.65-18-16.05-28.52-20.07a7.65,7.65,0,0,0-2.5-.79l-2.35-1-1.18-.5c-.39-.15-.8-.28-1.2-.43L175,45.11c-1.62-.53-3.3-.91-4.95-1.37l-2.48-.65-2.52-.48-3.84-.7c-1.2-.19-2.66-.3-4.29-.47l-2.58-.26c-.9-.08-1.85-.06-2.83-.09a79.63,79.63,0,0,0-12.62.58l-3.23.51a30,30,0,0,0-3.17.58c-2.06.51-4.05,1-5.91,1.52l-6,1.6,4.71,3.76a14.15,14.15,0,0,0,9.85,3.08c2.73-.24,4.35-1.25,4.69-1.73.15-.25.06-.43-.36-.51s-1.17-.06-2.23-.13a14.46,14.46,0,0,1-4-.83,12.24,12.24,0,0,1-4.94-3.34l-.58,2.51c1.84-.15,3.91-.35,6.22-.58,1.17-.07,2.41-.06,3.7-.11l2,0,1,0,1.05,0-.45.21,3.72,0a32,32,0,0,1,3.41,0l3.14.15c1,0,2,0,2.94.17,1.9.19,3.71.3,5.5.39s3.52.36,5.34.45c.88,1.29,8.3,2.14,10.47,3.44h-.25c3.19.5,6.12,2.09,9,3.51q4.2,2.52,8.38,4.52a2.68,2.68,0,0,1-1.74-.55L194.28,62l1.55.88,1.38,1c1.73,1.22,3,2.23,2.92,2.59L201,67l.81.64,1.65,1.32,1.69,1.36a21.06,21.06,0,0,1,1.69,1.44c2.18,2.05,4.48,4.06,6.43,6.26,1,1.09,2.05,2.08,2.94,3.14s1.76,2.07,2.6,3c1.73,1.84,3,3.65,4.23,4.89l-.42-.28c2.88,2.78,2.81,4.2,5.39,7.77,0,.25.16.54.1.52a26.23,26.23,0,0,1,2,3.25l1,2a19.43,19.43,0,0,1,1,2.07l1.66,4,.73,1.7c.2.53.4,1,.58,1.4l-.35.36c1,2.68,2,5.33,2.76,8.08l-.79-3.1c.74.35,1,2,1.39,4.21.17,1.12.47,2.37.69,3.75a24.68,24.68,0,0,0,1.13,4.3c.13.72.34,1.42.52,2.13s.38,1.42.6,2.13c.46,1.41,1,2.84,1.53,4.28a45.12,45.12,0,0,1,1.21,4.42,16.3,16.3,0,0,1,.47,4.56c.71,2.88-1-2.51-.41,1.82-.63.17-.49-2-.95-.86a30.59,30.59,0,0,1,.07,5.72,36.77,36.77,0,0,0-.14,6.46l-.5.19a36.83,36.83,0,0,1-.05,4.94c-.06.8-.14,1.57-.23,2.33s-.26,1.5-.4,2.21c-.27,1.44-.54,2.8-.72,4.09a28.94,28.94,0,0,0-.37,3.65c-.47,3.47-1,4.56-1.65,5.65s-1.12,2.22-1.58,5.85l-1.53,2.47a6.44,6.44,0,0,0-.53,2.66,5.53,5.53,0,0,1-.86,2.82c-.32-.34-1.94,3.88-1.56,1.88-.44.86-.84,1.74-1.23,2.63s-.86,1.75-1.27,2.66l-1.22,2.76c-.39.94-.9,1.85-1.36,2.8a48.32,48.32,0,0,1-3.22,5.76c-.63,1-1.29,1.94-2,2.92s-1.56,1.88-2.41,2.83a13.67,13.67,0,0,1-2.4,4.08,17.58,17.58,0,0,0-2.42,3.56c-.41,0-7.05,7.5-3.68,2.77.29-.41.89-1,1-.9l.1-.83a26,26,0,0,0-3.05,2.82c-.94,1-1.85,1.89-2.71,2.87a41.16,41.16,0,0,1-5.76,5.65c1.4-1,3.1-2.44,2.16-1.21-1.38,1.12-2.73,2.27-4.21,3.26l.65-1c-2.19,1.47-4.29,3.05-6.59,4.33l1.19-.16c-1.7.93-3,1.39-4.17,2a16.62,16.62,0,0,0-4.26,2.53c-1.54,1.31,3.53-1.16,0,1-1.17.56-2.57,1-4,1.6l-2.24.87c-.77.27-1.58.51-2.39.77-3.21,1.12-6.67,1.94-9.82,2.74.74.42-1,.78-2.73,1.29l-.31-.44c-.82.27-1.49.47-2,.6a8.53,8.53,0,0,1-1.3.21,3.16,3.16,0,0,1-1.33-.14c-.67-.22-1.31-.37-4.65.23l.56-.4c-.56.4-1.13.78-1.7,1.18-3.06.69-3.92.39-4.83.2s-1.89-.35-5.34.08c1.35.07,1.66.34,1.21.58a6.37,6.37,0,0,1-3.35.1l.9-.39a19,19,0,0,1-3.7-.28c1.13-.09.68-.57-2-1,.63-.06,1.26-.17,1.88-.27-1.71,0-3.42-.06-5.14-.2-1.83-.76-4.25-1.46-6.32-2.32a13.72,13.72,0,0,1-4.39-2.38s-1.83-1-3.85-2.27a37.46,37.46,0,0,0-5.24-2.94c1.66.66-2-2.31-.61-1.94a25.46,25.46,0,0,1-4.69-3.05,22.65,22.65,0,0,1-4.24-4.16l.41.3c-1.68-1.81-3.28-3.45-4.82-5l-4.45-4.55c-1.39-1.52-2.81-3-4.12-4.59a48.91,48.91,0,0,1-3.77-5.2c-.23.68-2.77-3.32-2.68-2a48.85,48.85,0,0,1-3.82-5.4c-1-1.8-2-3.51-2.78-5-1.57-3.11-2.94-5.46-4.68-6.45-2.1-3.69-1.75-4.73-2.58-6.74l.53.86a90.31,90.31,0,0,1-6-14.85c-1.07-2.72-2.3-2.86-3.34-8,.42.77.48.64.37.08s-.4-1.55-.58-2.52c.32,1.22.55,1.56.31-1a7.77,7.77,0,0,1-.56-1.36s0-.13.08-.09a18.15,18.15,0,0,0-.66-2.31c-.08-.06,0,.46.09,1.21-.08-.06-.13.08-.15.57,0-.44-.06-.9-.13-1.39s-.09-1-.15-1.54c-.13-1-.29-2.13-.43-3.12a15.61,15.61,0,0,1-.24-2.57c0-.68,0-1.15.21-1.27-.65-4.87-.89-9.08-1.08-13.1,0-1-.05-2-.08-3s0-2,0-3c0-2,.19-4,.35-6,.48-.87.58,1.09.44,3.47.19-1.93.34-3.87.63-5.79.26.07.21.9.07,1.94s-.28,2.3-.34,3.2c.41-1.69.66-3.42.94-5.18s.48-3.57.74-5.41.64-3.69,1.05-5.59A35.48,35.48,0,0,1,65,113.72l.13-1.74.22-.43c-.24-.06.11-1.88.48-3,.42-.46.67-.34,1-.58s.67-.85,1.47-2.69c1.57-2.75,3.55-8.24,5.49-11.94-1.21,1.88-1.07,1.14-.71.22,1-1.75,2-2.5,2.69-3.89l.64.19c-.46.17.11-1,.85-2.34a35.73,35.73,0,0,0,1.84-3.08c1-.64-1.51,2.77-1.51,3.37L80,84.41c.55-.68.86-1.08,1.17-1.47.62-.79,1.2-1.61,3.85-4.62,2.59-3.44-1,.15,0-1.71a47,47,0,0,1,8.59-8.31l-1.42.47c5.28-5,9.08-7.29,13.57-9.22a96.34,96.34,0,0,1,14-7.95c3.7-1.75,6.38-2.79,8.11-3.57,3.47-1.55,3-2.06,1-2.19a36.53,36.53,0,0,0-4.21.27c-1.63.27-3.43.58-5.07,1s-3.15.81-4.23,1.19l-1.75.6a70.75,70.75,0,0,0-25,14.71,95.4,95.4,0,0,0-10,10.49A109.6,109.6,0,0,0,68.53,88.52Z"/><ellipse class="cls-2" cx="149.75" cy="151.05" rx="91.19" ry="102.37"/><path class="cls-3" d="M123.66,175.8q-3.36-6.09-6.57-12.16c-2.14-4-4.32-8.06-6.49-12-1.11-2-2.21-3.93-3.33-5.86s-2.29-3.81-3.46-5.64a57.92,57.92,0,0,0-3.67-5,14.7,14.7,0,0,0-1.8-1.86A2.13,2.13,0,0,0,98,133c-.11-.07-.24-.2-.27-.16s-.12-.05-.09,0a.49.49,0,0,0,.3.14l-3.13-8.62c.39-.55.63-.87.94-1.27s.58-.75.87-1.11c.58-.72,1.17-1.42,1.78-2.11,1.21-1.35,2.46-2.67,3.78-3.91a71.57,71.57,0,0,1,8.4-6.83,73.6,73.6,0,0,1,9.37-5.49,70.87,70.87,0,0,1,31.54-7.09,82.48,82.48,0,0,1,21.09,3l.51.14a5.15,5.15,0,0,1,3.78,5c0,4.34.16,8.86.3,13.29l.3,6.68.4,6.67c.35,4.44.73,8.87,1.43,13.25a60,60,0,0,0,1.35,6.5,19.72,19.72,0,0,0,2.64,6.12,17.7,17.7,0,0,1-4.67-5.21,48.12,48.12,0,0,1-3.25-6.25,100.16,100.16,0,0,1-4.47-13.21c-.62-2.24-1.16-4.48-1.65-6.74s-1-4.51-1.37-6.78c-.85-4.55-1.49-9-2-13.74l4.29,5.09A89.11,89.11,0,0,0,151.68,109c-.77,0-1.52.08-2.28.13s-1.52.1-2.27.19c-1.5.19-3,.37-4.49.64s-3,.56-4.43.86-2.92.73-4.35,1.21a59.16,59.16,0,0,0-8.43,3.2,68.09,68.09,0,0,0-8,4.29,69.81,69.81,0,0,0-7.38,5.29c-1.17,1-2.31,2-3.41,3-.54.51-1.08,1-1.59,1.56l-.74.78-.62.68-3.12-8.61a16.3,16.3,0,0,1,1.9.75c.53.29.91.58,1.36.88a8.14,8.14,0,0,1,1.08.9c.3.29.67.6.9.88a26.07,26.07,0,0,1,2.6,3.39,52.3,52.3,0,0,1,3.59,6.59c1,2.18,1.92,4.37,2.76,6.58s1.62,4.4,2.34,6.62c1.46,4.42,2.69,8.89,3.81,13.39S123,171.21,123.66,175.8Z"/><path class="cls-3" d="M125.93,180.34c-2.37,2.54-4.68,4.75-6.57,7.08a23.84,23.84,0,0,0-2.43,3.36c-.14.27-.25.54-.39.79a6.12,6.12,0,0,0-.24.67c-.12.4,0,.69.13.49a.73.73,0,0,0,.12-.32,1.54,1.54,0,0,0,0-.54l0-.14,0-.08a1,1,0,0,0,0-.17c0-.1-.07-.2,0-.26a.25.25,0,0,0,0-.17l.07-.05s0,0,.11,0l.16,0a25.27,25.27,0,0,0,2.85.77,37.54,37.54,0,0,0,3.77.59c.6,0,1.2,0,1.8.09.3,0,.6,0,.9.06l.91-.05a36.13,36.13,0,0,0,3.69-.29c1.24-.25,2.51-.41,3.79-.78a61,61,0,0,0,7.92-2.56c2.71-1.06,5.46-2.3,8.3-3.61s5.74-2.74,8.95-4.06a38.47,38.47,0,0,1-12,16.42,35.91,35.91,0,0,1-14.59,7.21l-2.85.47a9.76,9.76,0,0,1-1.44.13l-1.46.06-1.47,0c-.49,0-1-.06-1.47-.1-1-.11-2-.17-2.92-.34a32.2,32.2,0,0,1-5.49-1.5,21.83,21.83,0,0,1-5.77-3.14l-.78-.69a8.35,8.35,0,0,1-.77-.79c-.26-.3-.51-.6-.75-.91s-.49-.76-.71-1.15a7,7,0,0,1-.57-1.32c-.08-.23-.16-.47-.23-.71l-.09-.36-.07-.43a8.52,8.52,0,0,1-.1-1.72,12.33,12.33,0,0,1,.23-1.5,9.69,9.69,0,0,1,2-3.82c.39-.47.78-.83,1.18-1.23s.8-.66,1.2-1a20.87,20.87,0,0,1,4.91-2.65,25.55,25.55,0,0,1,5-1.42A24.56,24.56,0,0,1,125.93,180.34Z"/><path class="cls-3" d="M169.35,170.41a27.53,27.53,0,0,1,4.93-6.34,36.11,36.11,0,0,1,6.23-4.87,30.15,30.15,0,0,1,7.6-3.35,23.29,23.29,0,0,1,4.63-.78,16.56,16.56,0,0,1,5.58.61,10.28,10.28,0,0,1,1.54.56,11.73,11.73,0,0,1,1.54.78,13.1,13.1,0,0,1,2.81,2.3,10.85,10.85,0,0,1,2.25,3.69,8.64,8.64,0,0,1,.38,1.38A14.42,14.42,0,0,1,207,166a8.35,8.35,0,0,1-.61,3.1,8.61,8.61,0,0,1-.62,1.29c-.22.34-.46.68-.71,1a6.12,6.12,0,0,1-.71.78c-.23.22-.5.5-.71.66a12.25,12.25,0,0,1-2.57,1.61,18.61,18.61,0,0,1-4.44,1.42,29.89,29.89,0,0,1-8.08.34,27.61,27.61,0,0,1-7.84-1.82,72.05,72.05,0,0,1,6.44-4.41c2.08-1.3,4.12-2.49,5.85-3.68a15.23,15.23,0,0,0,2.12-1.67,1,1,0,0,0,.35-.52s-.07,0-.09,0a.47.47,0,0,0-.13.09,1,1,0,0,0-.2.25,2.08,2.08,0,0,0-.26.46,1.69,1.69,0,0,0-.1.27,2.72,2.72,0,0,0-.11.34,3.53,3.53,0,0,0-.08.72,2.36,2.36,0,0,0,0,.7c.06.24,0,.35.1.52.24.64.31.69.25.7s0,.08-.27,0a7,7,0,0,0-1.59-.25,25.51,25.51,0,0,0-2.57.05c-1.92.15-4.06.44-6.29.79A123.34,123.34,0,0,1,169.35,170.41Z"/><path d="M1062,203.32a64.34,64.34,0,0,1-14.44,21.88,59.91,59.91,0,0,1-21,13.35,70.19,70.19,0,0,1-24.83,4.48q-18.16,0-31.94-6.78A63.3,63.3,0,0,1,946.74,217q-9.3-12.48-14.11-30.08a147.93,147.93,0,0,1-4.82-39,90.52,90.52,0,0,1,6.79-35.56,87,87,0,0,1,17.94-27.45,80.49,80.49,0,0,1,25.37-17.61A72.28,72.28,0,0,1,1007.23,61a35.68,35.68,0,0,1,7.87,1.32q5.25,1.31,11.49,3.5t12.91,5.25a93.94,93.94,0,0,1,12,6.56,48.42,48.42,0,0,1,8.86,7.22q3.49,3.72,3.5,7.44a8.33,8.33,0,0,1-2.84,6.34,51.11,51.11,0,0,1-5,4.16,29.06,29.06,0,0,0-7.88,7.22,55.77,55.77,0,0,0-5,8.42q-2.19,4.49-4.38,9.08a46.07,46.07,0,0,1-5.47,8.75l-1.75.22c-.73,0-1.6-.73-2.62-2.19s-1.39-2.62-1.1-3.5.66-3.28,1.53-7.22,1.75-8.09,2.63-12.47,1.67-8.35,2.41-11.92,1.09-5.58,1.09-6a18.3,18.3,0,0,0-3.17-10.83A26.11,26.11,0,0,0,1024.4,75a35.6,35.6,0,0,0-10.06-4.16,40.43,40.43,0,0,0-9.52-1.32,47.45,47.45,0,0,0-22.31,5.25,52.58,52.58,0,0,0-17.29,14.55A70.61,70.61,0,0,0,954,111.22a88.45,88.45,0,0,0-4.05,27.24A106.74,106.74,0,0,0,954,169.2a63.31,63.31,0,0,0,11.7,22.64,49.1,49.1,0,0,0,18.71,13.89,62.71,62.71,0,0,0,24.83,4.7,49.13,49.13,0,0,0,32.7-12.9,50.88,50.88,0,0,0,11.27-15.32,46.27,46.27,0,0,0,4.38-20.56,39.67,39.67,0,0,0-2.85-15.1,6.57,6.57,0,0,0,1.21-.87,2.18,2.18,0,0,1,1.2-.66q2.63,0,4.48,3.5a42,42,0,0,1,3.18,8.1,67.61,67.61,0,0,1,2,9.29,56,56,0,0,1,.66,7.11Q1067.39,190.32,1062,203.32Z"/><path d="M1179.29,217.83q-9.3,1.17-18.92,1.7t-18.16.53h-12.69c-2.48,0-5.8,0-10-.11s-8.47-.25-12.91-.55-8.75-.69-12.91-1.2a39.81,39.81,0,0,1-9.52-2.08,176,176,0,0,0,4.71-39.6q.11-20.11.11-40,0-13.13-.55-26.91a106.41,106.41,0,0,0-4.27-26.25,4.68,4.68,0,0,1,2.41-1.42,19.77,19.77,0,0,1,3.72-.77c1.31-.14,2.59-.25,3.83-.33s2.22-.11,3-.11q3.06,0,8.1.33a36.27,36.27,0,0,1,7.87,1.2l1.31,3.07a84,84,0,0,0-2.73,19.61q-.33,10.86-.33,20.06v25.85q0,8.55.11,18t.44,17.74c.22,5.55.51,10.49.87,14.79a40.5,40.5,0,0,0,1.42,8.88,8.82,8.82,0,0,0,5.26,2.74,51.07,51.07,0,0,0,5.9.33,48,48,0,0,0,12.14-2.19,120.58,120.58,0,0,0,15.76-5.69,84.76,84.76,0,0,0,14.43-8q6.45-4.48,8-9.08-2-11.37-4.38-23.52a121.14,121.14,0,0,1-2.4-23.52,8.4,8.4,0,0,1,.44-2.51c.29-.95.5-1.79.65-2.52l3.28-3.5,2.19,1.31a18.94,18.94,0,0,0-.44,5,35.65,35.65,0,0,0,.22,4.81q1.53,11.81,3.17,20.56t3.94,16.63q2.3,7.88,5.25,15.64t6.89,17.58A63.56,63.56,0,0,1,1179.29,217.83Z"/><path d="M1329,178.27a72.06,72.06,0,0,1-12.36,22.43,60.34,60.34,0,0,1-19.25,15.53,53.43,53.43,0,0,1-24.83,5.8q-15.54,0-27.35-6.56A59.63,59.63,0,0,1,1225.56,198a80.17,80.17,0,0,1-11.92-25.05,105.28,105.28,0,0,1-4.05-29.2,61.91,61.91,0,0,1,5.58-26.15A69.26,69.26,0,0,1,1230,96.45a70.22,70.22,0,0,1,21.33-14.11,62.46,62.46,0,0,1,24.73-5.14,43.12,43.12,0,0,1,24.06,7,63.32,63.32,0,0,1,18,17.94,92.2,92.2,0,0,1,15.2,49.66A80.75,80.75,0,0,1,1329,178.27Zm-13.24-25.59a102,102,0,0,0-5.9-17.18,109.82,109.82,0,0,0-9.19-16.62,83.13,83.13,0,0,0-11.71-14,58.14,58.14,0,0,0-13.67-9.74,33.19,33.19,0,0,0-15.2-3.72,33.66,33.66,0,0,0-14.12,3,32.56,32.56,0,0,0-11,8.21,39.24,39.24,0,0,0-7.22,12.25,42.67,42.67,0,0,0-2.63,15.1,77,77,0,0,0,4.81,25.92,92,92,0,0,0,13.24,24.61,76.42,76.42,0,0,0,19.58,18.38,43.16,43.16,0,0,0,23.85,7.22,25.54,25.54,0,0,0,12.8-3.28,32.67,32.67,0,0,0,9.84-8.54,42.66,42.66,0,0,0,8.64-25.59A67.45,67.45,0,0,0,1315.8,152.68Z"/><path d="M1473.1,95.91c-.8,3.86-1.83,8.35-3.06,13.45s-2.59,10.43-4,16-2.88,10.65-4.27,15.31-2.59,8.58-3.61,11.71-1.75,4.7-2.18,4.7q.87-10.71,2.29-22.09a177.78,177.78,0,0,0,1.43-22.1,16.8,16.8,0,0,0-2.85-9.51,25.37,25.37,0,0,0-7.11-7.12,35.08,35.08,0,0,0-9.3-4.37,32.4,32.4,0,0,0-9.4-1.53,7.91,7.91,0,0,0-4.82,1.31,9.12,9.12,0,0,0-2.73,3.28,12.14,12.14,0,0,0-1.2,4.49c-.15,1.68-.22,3.39-.22,5.14q0,8.74.43,20.13t1,23.29q.54,11.92,1.2,23.52t1.21,20.57q.54,9,1.42,20.12a3.17,3.17,0,0,1-2.08,3,15.76,15.76,0,0,1-4.81,1.31,44.81,44.81,0,0,1-5.36.33h-7.66a17.76,17.76,0,0,1-4.38-.55,8,8,0,0,1-3.61-1.86,4.53,4.53,0,0,1-1.2-3.94q1.75-26.46,3.17-52.94t1.43-52.94c0-1.75-.08-3.5-.22-5.25a12.6,12.6,0,0,0-1.21-4.6,8.76,8.76,0,0,0-2.84-3.28,8.4,8.4,0,0,0-4.92-1.31,32.41,32.41,0,0,0-9.41,1.53,33.45,33.45,0,0,0-9.3,4.48,27.66,27.66,0,0,0-7.11,7.12,16.59,16.59,0,0,0-2.84,9.62,176.1,176.1,0,0,0,1.42,21.88q1.42,11.37,2.51,22.09-.64-.21-2.18-4.7c-1-3-2.23-6.81-3.61-11.49s-2.81-9.76-4.27-15.31-2.81-10.86-4-16-2.26-9.59-3.06-13.45a48.15,48.15,0,0,1-1.2-7.77,4.64,4.64,0,0,1,2.19-3.94,17.18,17.18,0,0,1,5.25-2.4,48.87,48.87,0,0,1,6-1.32,34.25,34.25,0,0,1,4.71-.44c3.93-.14,9.48-.21,16.62-.21h22.54q11.81,0,23.08.11t17.94.22l7.11.11a73.52,73.52,0,0,1,9.18,1.53,27.17,27.17,0,0,1,6.35,2.4c1.89,1,2.84,2.34,2.84,3.94A48.15,48.15,0,0,1,1473.1,95.91Z"/><path d="M1600.86,214.37a4.12,4.12,0,0,1-.65,1,7.49,7.49,0,0,1-.77.65,1.43,1.43,0,0,0-.44,1.21h-20.56c-1,0-2-.77-3.06-2.3a7.32,7.32,0,0,1-1.54-3.61,139.88,139.88,0,0,1,1.64-21.33,138.54,138.54,0,0,0,1.65-21.33V117.89a32.25,32.25,0,0,0-11.38-2.62c-3.8-.14-7.66-.22-11.6-.22h-8.09c-3.21,0-6.45.08-9.74.22s-6.45.4-9.51.76a50.81,50.81,0,0,0-7.66,1.43,14,14,0,0,1-1.42.54,1.24,1.24,0,0,0-1,1.21l.88,9.84v33.47q0,8.32.11,16.41t.65,16.52q.55,8.43,1.65,18.48a5.9,5.9,0,0,1-2.52,1.75,13.45,13.45,0,0,1-3.61.88,32.72,32.72,0,0,1-3.72.22h-3.06q-3.28,0-6-.11a11.5,11.5,0,0,1-4.7-1.09,6.8,6.8,0,0,1-3.06-3.18,15,15,0,0,1-1.1-6.56q0-15.09,1-30.52t1.64-31.06q.64-15.64.54-31a218.83,218.83,0,0,0-2.29-30.19l4.15-3.07h17.07a3,3,0,0,1,3.06,2.5,20.6,20.6,0,0,1,.55,5.86q-.12,3.38-.55,6.73A43.57,43.57,0,0,0,1517,100a13.26,13.26,0,0,0,1,5.32c.65,1.51,2.08,2.27,4.26,2.27l50.1.66a4,4,0,0,0,3-1.19,8.82,8.82,0,0,0,1.87-2.72L1574.94,82q2.4-2.18,6.89-2.28c3-.07,5.5-.11,7.55-.11q7.65,0,10.06,4.26T1601.63,95a125,125,0,0,1-1.64,15.64,108.83,108.83,0,0,0-1.43,17.51V159.9a262.16,262.16,0,0,0,1.32,26.25q1.3,13.13,1.31,26.25A4.55,4.55,0,0,1,1600.86,214.37Z"/><path d="M1640.68,213.72a3.94,3.94,0,0,1-.66,1,7.52,7.52,0,0,1-.77.66,1.42,1.42,0,0,0-.43,1.2h-20.39c-1,0-2-.77-3-2.3a7.45,7.45,0,0,1-1.51-3.83,137.24,137.24,0,0,1,1.64-21.11,123.81,123.81,0,0,0,1.42-21.33q0-22.31-.11-43.53T1615,81.14q2.38-2,6.83-2.08c3-.07,5.46-.11,7.48-.11,1.16,0,2.39,0,3.69.11a8.83,8.83,0,0,1,3.47.88,6.62,6.62,0,0,1,2.49,2.18,7.13,7.13,0,0,1,1,4q-.44,10.5-1,20.68t-.55,20.67v31.72q0,13.13,1.31,26.25a262.2,262.2,0,0,1,1.31,26.26A4.76,4.76,0,0,1,1640.68,213.72Z"/><path d="M1768.22,145.9q-.56,7.22-1.32,16.3t-1.86,19q-1.1,10-2.62,18.16a82.22,82.22,0,0,1-3.5,13.45c-1.31,3.5-2.85,5.25-4.6,5.25-.87,0-2.33-1.27-4.37-3.83s-4.16-5.5-6.35-8.86-4.23-6.56-6.12-9.62-3.14-5.18-3.72-6.35a74.65,74.65,0,0,0-6.13-9.62q-4.82-6.78-11.48-15.1t-14.33-17.28q-7.66-9-14.55-16.41t-12.36-12.36q-5.48-4.92-7.88-5.36a29.26,29.26,0,0,0-1.31,7c-.14,2.34-.22,4.74-.22,7.22q0,17.05,1.32,34.46a242.61,242.61,0,0,0,5,34.23,35.06,35.06,0,0,0,1.09,4.16q.87,2.85,1.86,5.91t1.75,5.58a18.64,18.64,0,0,1,.77,2.95,3,3,0,0,1-1.32,2.52,12.34,12.34,0,0,1-3.06,1.64,21.81,21.81,0,0,1-3.5,1,16,16,0,0,1-2.84.33q-3.74,0-5.25-4.27a37.43,37.43,0,0,1-2-9.84,89.38,89.38,0,0,1-.22-10.94c.14-3.57.22-6.09.22-7.55q0-23.19-1.1-45.94t-1.09-45.94c0-1,0-2.3.11-3.83a22.42,22.42,0,0,1,.66-4.49,11.81,11.81,0,0,1,1.64-3.82,3.65,3.65,0,0,1,3.28-1.64q5.91,0,13.89,5.68a127.48,127.48,0,0,1,16.84,14.77q8.87,9.07,18.05,20.24t17.72,22.09L1745.14,165q7.21,9.3,12,14.77c0-3.36.11-6.71.33-10.07s.33-6.7.33-10.06q0-4.59-.88-13.56t-2.41-18.49q-1.53-9.51-3.28-17.94c-1.17-5.61-2.4-9.66-3.72-12.14a24.91,24.91,0,0,0-4.15-6,9.65,9.65,0,0,1-2.85-6.45,3.15,3.15,0,0,1,1.42-2.74,9.82,9.82,0,0,1,3.39-1.42,25.57,25.57,0,0,1,3.94-.55c1.32-.07,2.33-.1,3.07-.1h5.9a7,7,0,0,1,5.91,3,21.79,21.79,0,0,1,3.39,7.55,53.25,53.25,0,0,1,1.53,10.39q.33,5.79.33,11.48t-.22,10.83q-.23,5.15-.22,8.21c0,.29,0,.91-.11,1.86a4.39,4.39,0,0,0,.33,2.29C1768.91,137.73,1768.58,141.08,1768.22,145.9Z"/><path d="M1910.53,203.22a29.32,29.32,0,0,1-8.1,7.65,54,54,0,0,1-11.48,5.58,127.85,127.85,0,0,1-12.8,3.83,99.33,99.33,0,0,1-12.25,2.19,93.84,93.84,0,0,1-9.85.65,63.49,63.49,0,0,1-49.55-22.42,74.42,74.42,0,0,1-13.67-24.29,89.86,89.86,0,0,1-4.81-29.64,58.1,58.1,0,0,1,6.34-27.13,68.27,68.27,0,0,1,16.52-20.89,77.14,77.14,0,0,1,23-13.45,73.08,73.08,0,0,1,25.92-4.82,96.51,96.51,0,0,1,12.69,1.27,130.72,130.72,0,0,1,17.28,3.83,60.26,60.26,0,0,1,15.32,6.72q6.56,4.15,6.56,9.84l-12.47,14.22q-1.76,0-4.81-4.59a117.48,117.48,0,0,0-7.66-10.07,53.75,53.75,0,0,0-11.27-10,27.37,27.37,0,0,0-15.64-4.48,39.8,39.8,0,0,0-20,5.15,53.07,53.07,0,0,0-15.64,13.48,65.54,65.54,0,0,0-10.28,18.84,64,64,0,0,0-3.72,21.48,38.91,38.91,0,0,0,2.74,13.81,76.41,76.41,0,0,0,7.22,14.25,84.91,84.91,0,0,0,10.5,13.26,88.48,88.48,0,0,0,12.68,11,69.22,69.22,0,0,0,13.57,7.56,34.36,34.36,0,0,0,13.23,2.85q5.91,0,10.62-.33a20.21,20.21,0,0,0,8.2-2.18,12.19,12.19,0,0,0,5.36-5.91q1.86-4,1.86-11.49a95.74,95.74,0,0,0-1.86-20.67,43.73,43.73,0,0,0-5.14-13.45,24.77,24.77,0,0,0-7.88-8.1,44.89,44.89,0,0,0-10.17-4.59q-5.58-1.76-11.71-3.06a119.82,119.82,0,0,1-12.68-3.51,3.64,3.64,0,0,1,2.29-2.07,17.45,17.45,0,0,1,4-1.1c1.46-.22,2.92-.36,4.38-.44s2.62-.11,3.5-.11q14.43,0,24.06-.21a124.77,124.77,0,0,1,15.64.43c4,.44,7,1.46,8.86,3.07s3.18,4.15,3.83,7.65a65.42,65.42,0,0,1,.66,14q-.33,8.76-.55,22.1l-.22,8.31.22,6.13A15.68,15.68,0,0,1,1910.53,203.22Z"/><path d="M364.69,226.47a3.2,3.2,0,0,1-.68,1.16l-.78.78a2.66,2.66,0,0,0-.58,1.35H342.52A2.19,2.19,0,0,1,341,229a9.25,9.25,0,0,1-1.45-1.94,12,12,0,0,1-1.07-2.32,6.36,6.36,0,0,1-.39-1.94,188,188,0,0,1,1.55-24,187.44,187.44,0,0,0,1.55-24.2q0-25.35-.19-49.37t-1.74-49c1.55-1.55,3.8-2.39,6.77-2.52s5.42-.19,7.36-.19a36.76,36.76,0,0,1,3.68.19,10.05,10.05,0,0,1,3.48,1A6,6,0,0,1,363,77.1a8,8,0,0,1,.78,4.55q-.39,11.82-1,23.62t-.58,23.43v36q0,15.1,1.35,29.82T365,224.15A7.07,7.07,0,0,1,364.69,226.47Z"/><path d="M478.62,202.56a65.58,65.58,0,0,1-14.52,17A72.42,72.42,0,0,1,445.32,231a49.26,49.26,0,0,1-18.78,4.16,46.81,46.81,0,0,1-18.29-4.06A64.87,64.87,0,0,1,390.63,220a60,60,0,0,1-13.26-16.75,43.28,43.28,0,0,1-5.23-20.91,47.66,47.66,0,0,1,1.74-13.46,55.92,55.92,0,0,1,4.55-11,65.4,65.4,0,0,1,6.58-9.78q3.78-4.65,7.84-9.68a48,48,0,0,1-6.09-5.52,45,45,0,0,1-5.43-7.07,38.45,38.45,0,0,1-3.87-8.23,28.18,28.18,0,0,1-1.45-9q0-10.64,5.52-17.42a38,38,0,0,1,13.55-10.55,61.47,61.47,0,0,1,16.85-5.14,103.25,103.25,0,0,1,15.39-1.35,114.63,114.63,0,0,1,15.58,1.26A64.42,64.42,0,0,1,460,80.2a37.4,37.4,0,0,1,13.74,10.26q5.63,6.67,5.62,17.33a29.45,29.45,0,0,1-1.45,9.1,37.4,37.4,0,0,1-3.88,8.32,41.15,41.15,0,0,1-5.42,7,51,51,0,0,1-6.1,5.42q4.08,5,7.94,9.78a89.2,89.2,0,0,1,7,9.78,51,51,0,0,1,5,10.94,43.45,43.45,0,0,1,1.93,13.45A40.37,40.37,0,0,1,478.62,202.56Zm-23.23-41.63a50.34,50.34,0,0,0-7.07-15.87,26.51,26.51,0,0,0-10-8.81,28.69,28.69,0,0,0-11.61-2.91,28.19,28.19,0,0,0-11.62,2.42,22.62,22.62,0,0,0-9.39,8.23q-4,5.82-6.29,15.4a102.34,102.34,0,0,0-2.33,23.71,49.53,49.53,0,0,0,1.94,12,62.85,62.85,0,0,0,5.71,14.23,42.67,42.67,0,0,0,9.49,11.81,19.9,19.9,0,0,0,13.45,4.93,16.65,16.65,0,0,0,11.91-4.16,45.63,45.63,0,0,0,9.68-11.23,62.56,62.56,0,0,0,6.49-13.84A40,40,0,0,0,458.1,185Q458.1,170.72,455.39,160.93ZM427.9,80.87q-15.11-.18-22.56,10.65t-7.45,31.56v2.33a13.21,13.21,0,0,0,.29,2.71,5.26,5.26,0,0,0,1,2.22,2.2,2.2,0,0,0,1.84.87,13.1,13.1,0,0,0,3-1.64c1.74-1.1,3.84-2.32,6.29-3.68a68.44,68.44,0,0,1,8.13-3.77,23.65,23.65,0,0,1,8.71-1.75,28.25,28.25,0,0,1,8.91,1.55,72,72,0,0,1,8.62,3.49c2.64,1.29,4.84,2.45,6.58,3.48a10.83,10.83,0,0,0,3.19,1.55,2,2,0,0,0,1.75-.87,6.66,6.66,0,0,0,.87-2.23,19.34,19.34,0,0,0,.38-2.61c.07-.84.1-1.58.1-2.23Q457.52,81.07,427.9,80.87Z"/><path d="M607.66,185.81a87.27,87.27,0,0,1-12.19,25.37,62,62,0,0,1-18.88,17.61,46.73,46.73,0,0,1-24.4,6.59q-15.29,0-26.81-7.46a62.81,62.81,0,0,1-19.26-19.84,97.29,97.29,0,0,1-11.72-28.46,137.36,137.36,0,0,1-4-33.11A78.24,78.24,0,0,1,496,117.08a80.39,80.39,0,0,1,14.62-23.91A69.6,69.6,0,0,1,531.48,77.1a53.86,53.86,0,0,1,24.39-5.91,38.07,38.07,0,0,1,23.62,7.94,68.91,68.91,0,0,1,17.72,20.33,104.44,104.44,0,0,1,11,27.3,118.41,118.41,0,0,1,3.77,29A102.37,102.37,0,0,1,607.66,185.81Zm-13-28.94a123.93,123.93,0,0,0-5.81-19.56,131.65,131.65,0,0,0-9-18.78,94.84,94.84,0,0,0-11.52-16A56,56,0,0,0,554.9,91.43,29.18,29.18,0,0,0,540,87.27a28.85,28.85,0,0,0-13.85,3.38A34.5,34.5,0,0,0,515.21,100,44.83,44.83,0,0,0,508.05,114a56.09,56.09,0,0,0-2.52,17,93.47,93.47,0,0,0,2.13,19.36,112.23,112.23,0,0,0,6.1,19.65,110.78,110.78,0,0,0,9.59,18.2,87.15,87.15,0,0,0,12.29,15.1,55.72,55.72,0,0,0,14.42,10.27,36.36,36.36,0,0,0,16.07,3.77,22.43,22.43,0,0,0,12.59-3.68A33.24,33.24,0,0,0,588.3,204a50.15,50.15,0,0,0,6.2-13.55A54.58,54.58,0,0,0,596.73,175,89,89,0,0,0,594.69,156.87Z"/><path d="M735.06,185.81a87.29,87.29,0,0,1-12.2,25.37A62,62,0,0,1,704,228.79a46.7,46.7,0,0,1-24.39,6.59q-15.3,0-26.82-7.46a62.81,62.81,0,0,1-19.26-19.84,97,97,0,0,1-11.71-28.46,137.36,137.36,0,0,1-4-33.11,78.43,78.43,0,0,1,5.51-29.43A80.39,80.39,0,0,1,638,93.17,69.85,69.85,0,0,1,658.87,77.1a53.9,53.9,0,0,1,24.4-5.91,38.09,38.09,0,0,1,23.62,7.94A68.88,68.88,0,0,1,724.6,99.46a104.44,104.44,0,0,1,11,27.3,117.93,117.93,0,0,1,3.77,29A102.7,102.7,0,0,1,735.06,185.81Zm-13-28.94a126.08,126.08,0,0,0-5.81-19.56,133.83,133.83,0,0,0-9-18.78,95.4,95.4,0,0,0-11.52-16A56.4,56.4,0,0,0,682.3,91.43a29.24,29.24,0,0,0-14.91-4.16,28.81,28.81,0,0,0-13.84,3.38A34.39,34.39,0,0,0,642.61,100,44.41,44.41,0,0,0,635.45,114a56.09,56.09,0,0,0-2.52,17,93.47,93.47,0,0,0,2.13,19.36,112.25,112.25,0,0,0,15.68,37.85,86.74,86.74,0,0,0,12.3,15.1,55.72,55.72,0,0,0,14.42,10.27,36.33,36.33,0,0,0,16.07,3.77,22.37,22.37,0,0,0,12.58-3.68A33.27,33.27,0,0,0,715.7,204a50.13,50.13,0,0,0,6.19-13.55A54.23,54.23,0,0,0,724.12,175,89.69,89.69,0,0,0,722.09,156.87Z"/><path d="M856.55,211.33a38.39,38.39,0,0,1-11.23,11.33,48.19,48.19,0,0,1-15.1,6.49,68,68,0,0,1-16.07,2,59,59,0,0,1-13.85-1.75,75.15,75.15,0,0,1-14.32-5,80.19,80.19,0,0,1-13.46-7.94,55.15,55.15,0,0,1-11-10.55A46.13,46.13,0,0,1,754.32,193a35.21,35.21,0,0,1-1.94-14.72l.2-1.74a29.12,29.12,0,0,1,6.87-5.61c2.13-1.17,4.94-1.55,8.42-1.17.13.39.26.84.39,1.36a5.65,5.65,0,0,1,.19,1.35,14.49,14.49,0,0,1-.87,4.94,14,14,0,0,0-.87,4.74,50.47,50.47,0,0,0,2.91,17.33,40.69,40.69,0,0,0,8.25,13.85,38.09,38.09,0,0,0,12.81,9.1,40.86,40.86,0,0,0,16.6,3.29A44.79,44.79,0,0,0,818,224.31a37,37,0,0,0,10.77-4.56,29.15,29.15,0,0,0,8.25-7.64,18.12,18.12,0,0,0,3.3-10.94A17.36,17.36,0,0,0,834.75,188a55.34,55.34,0,0,0-13.88-9.29q-8.36-4.07-18-7.74a127.66,127.66,0,0,1-18.05-8.43,49.39,49.39,0,0,1-13.88-11.42q-5.53-6.68-5.53-16.75a20.21,20.21,0,0,1,5.13-14,36.77,36.77,0,0,1,12.48-9,57.79,57.79,0,0,1,15.49-4.45,71.39,71.39,0,0,1,14.33-.77c3.23.25,6.58.61,10.07,1.06a78.55,78.55,0,0,1,10.26,2,51.89,51.89,0,0,1,9.68,3.68,34.65,34.65,0,0,1,8.33,5.81l1.16,3.29q-.39.58-3,4.74t-5.62,8.81q-3,4.65-5.52,8.52c-1.67,2.59-2.58,3.94-2.71,4.07l-2.9-2.13q.59-6,.58-12.39a24.36,24.36,0,0,0-1.84-10.07,17.3,17.3,0,0,0-5-6.58,20.56,20.56,0,0,0-7.55-3.68,37,37,0,0,0-9.59-1.16,61,61,0,0,0-8.32.58,37.52,37.52,0,0,0-8.13,2,29.52,29.52,0,0,0-7.17,3.87,21.53,21.53,0,0,0-5.61,6.29v1.56q-.39,5,5.52,9.09a96.39,96.39,0,0,0,14.9,8.14q9,4.07,19.65,8.52a125,125,0,0,1,19.75,10.35,62.2,62.2,0,0,1,15.2,13.65,28.84,28.84,0,0,1,6.1,18.39Q861,204.46,856.55,211.33Z"/></svg>